<?xml version="1.0" encoding="utf-8"?>
<!-- Generator: Adobe Illustrator 24.0.1, SVG Export Plug-In . SVG Version: 6.00 Build 0)  -->
<svg version="1.1" id="svg" xmlns="http://www.w3.org/2000/svg" xmlns:xlink="http://www.w3.org/1999/xlink" x="0px" y="0px"
	 viewBox="0 0 861 862" style="enable-background:new 0 0 861 862;" xml:space="preserve">
<style type="text/css">
	.st0{fill-rule:evenodd;clip-rule:evenodd;fill:#000000;}
</style>
<path class="st0" d="M279.3,92.9c-2.4,2.6-15.2,22.3-19.6,30.2c-1.8,3.1-5.6,10.1-8.6,15.5c-3,5.4-6,10.6-6.7,11.5
	s-6,11.2-11.9,22.9c-15.8,31.8-21.2,51.1-28.8,103.9c-6.6,45.7-6.2,72,1.8,104.7l3.4,13.9l-6.3,9.1c-3.5,5-8.7,12.4-11.5,16.4
	c-2.8,4-10.5,16.8-16.9,28.5c-6.5,11.7-12.6,22.1-13.7,23.2c-1,1.1-22,6.5-46.7,12c-51.5,11.5-96,25.4-100,31.4
	c-1.3,2-5.2,7.4-8.6,11.9c-7.1,9.5-7.1,9.9,1.5,28.6c5.4,11.8,6.7,13.3,25.7,28.9c16.1,13.2,26.2,19.8,51.9,33.7
	c36.5,19.8,99.8,46.8,143.4,61c15.1,4.9,35.3,11.5,44.7,14.6c24.5,8,70,20.7,91.6,25.4c3.1,0.7,13.1,3.2,22.1,5.6
	c23.3,6.2,125.4,26.5,149.7,29.7c25.2,3.3,35.1,4.7,58.1,8c16.6,2.4,42.3,4.3,91.1,7c11.3,0.6,23,0.3,28.6-0.7
	c5.3-1,15.5-2.7,22.8-3.8l13.3-2l-9.2-7.7c-18.1-15.1-37.1-35.1-41-43.2c-2.1-4.4-4.2-11.4-4.6-15.6c-0.9-9.8,1.6-12,13.6-12
	c13.7,0,31,9.1,46.1,24.3c17.2,17.4,24.1,32.9,17.6,40c-2.3,2.6-0.9,2.9,20,4.7c12.4,1.1,26.2,2.4,30.7,2.9c8,0.9,8.6,0.6,22.9-9.5
	l14.7-10.4l0.5-10.6c0.3-5.8-0.3-13.2-1.2-16.3c-2.3-7.6-35.2-41.4-55.9-57.4c-43-33.2-59.1-46.4-60.3-49.6
	c-0.7-1.9-2.2-17.8-3.2-35.3c-1.1-17.5-2.6-32.6-3.5-33.5c-2.8-2.8-1.8-16.9,1.3-19.2c6.9-5.2,23.7-29.3,29.3-42.2
	c1-2.2,4.3-10,7.5-17.2c3.1-7.2,6.2-14.9,6.9-17.2c0.6-2.2,4.8-14.4,9.3-27c13.7-38.5,16.3-51.3,17.2-85.1
	c0.7-23.2,0.1-36.8-2.6-63.8c-1.9-18.9-4.5-38-5.6-42.5c-2-7.9-2.2-7.2-3.2,19.6c-1,25.4-4.8,57.2-9.4,77.2
	c-8.3,36.3-18.8,73.5-29.4,104.4c-13.5,39.4-26.8,72.8-28.9,72.8c-1.2,0-2.1-0.8-2.1-1.7c0-6.4-13.6-36.1-25.1-54.5
	c-16.3-26.3-20-31.1-42.8-54.7c-13.2-13.7-23.4-22.4-38.4-32.7c-11.2-7.7-23.6-16.4-27.4-19.3c-11-8.4-49.7-24.2-71.6-29.3
	c-6.3-1.5-15.5-3.7-20.4-5c-14.9-3.8-32.1-5.8-56.3-6.8c-20.7-0.8-26-0.4-53.3,4.1c-19.2,3.2-35.4,6.9-44.2,10.2
	c-7.6,2.8-18.7,6.8-24.5,8.9c-5.8,2.1-14.5,5.3-19.3,7.2c-13.1,5.2-52.1,31.8-64.5,44c-6,5.9-11.4,10.4-11.9,9.8
	c-0.9-0.9,1.5-30.6,5.9-73.3c7.8-77,24.3-151.2,44-197.8C282.3,91.2,282.7,89.2,279.3,92.9"/>
</svg>
