<svg xmlns="http://www.w3.org/2000/svg" viewBox="0 0 361.23 63.21"><defs><style>.a7c101ff-7f11-4766-b7e8-3643d9028805{fill:#000000;}</style></defs><title>资源 1</title><g id="e88bfcf3-5760-4084-bf42-33318bbe70ec" data-name="图层 2"><g id="ffa5891f-f517-4892-a507-8bbee24ded25" data-name="图层 1"><path class="a7c101ff-7f11-4766-b7e8-3643d9028805" d="M0,7.11H27q.39.08.39.39V27.89h15.4V7.5c0-.26.15-.39.38-.39H60.75q.42.08.42.39V62.87c0,.26-.14.38-.42.38H43.17a.33.33,0,0,1-.38-.38V41.46H27.39V62.87c0,.26-.13.38-.39.38H9.21c-.26,0-.39-.12-.39-.38V16.67L0,7.29Z" transform="translate(0 -0.15)"/><path class="a7c101ff-7f11-4766-b7e8-3643d9028805" d="M67.92,21.14H94.18q7.35,1.75,7.35,5.38V53.87q0,.5,2.36,9.28l-.43.21H69.64q-4.74-.49-4.74-3.23V40.3q0-2.74,4.74-3.24H85.57V31.68H71.37q-.57,0-3.45-10.33ZM80,47.65v5.59h5.59V47.65Z" transform="translate(0 -0.15)"/><path class="a7c101ff-7f11-4766-b7e8-3643d9028805" d="M109.86,10.59h15.61c.31.05.46.2.46.46V21.17h2l.46.25q-2.46,9.07-2.46,9.56V53.55q0,.5,2.46,9.6l-.46.21H109.86c-.28,0-.42-.15-.42-.46V31q0-.5-2.46-9.56l.46-.25h2V11.05C109.49,10.74,109.63,10.59,109.86,10.59Z" transform="translate(0 -0.15)"/><path class="a7c101ff-7f11-4766-b7e8-3643d9028805" d="M148.78,7.11H173c.23,0,.35.16.35.35V48.52h11.57V7.46c0-.23.14-.35.35-.35h17.22c.24,0,.36.16.36.35V58.23a60.45,60.45,0,0,1-5.49,5.13H160.52q-.77-.53-5.13-8.44V15.72l-6.61-8.26Z" transform="translate(0 -0.15)"/><path class="a7c101ff-7f11-4766-b7e8-3643d9028805" d="M206.68,21.14h34.39A34.78,34.78,0,0,1,245.18,25V63.08a.24.24,0,0,1-.28.28H232c-.19,0-.29-.09-.29-.28V32.28H223v30.8c0,.19-.08.28-.24.28H209.71l-.28-.14.14-.67V58a1.29,1.29,0,0,0-.14-.67l.14-.56q-.15-17.32-.14-24.75-1.1-4.35-3-10.72Z" transform="translate(0 -0.15)"/><path class="a7c101ff-7f11-4766-b7e8-3643d9028805" d="M250.1,21h17.37c.3,0,.46.19.46.42V62.94c0,.28-.16.42-.46.42h-15a.38.38,0,0,1-.43-.42V30l-2.39-8.75Zm.7-17.76v.11l1.06,4.82a37.23,37.23,0,0,0,3.76-3.49Q253.94,4.31,250.8,3.24Zm1.48,8.41q0,4.24,5.1,5.87l1.3.14q4.43,0,6.15-4.82c0-.09.05-.54.14-1.34q0-4.24-5.1-5.87l-1.33-.14q-4.37,0-6.12,4.82C252.33,11.08,252.28,11.53,252.28,11.65ZM258,4.16a42.62,42.62,0,0,0,4.57.67V4.68A44.4,44.4,0,0,1,261.25.15,34.48,34.48,0,0,0,258,4.16Zm6.82,2.14v.14c.89,1.85,1.51,3.24,1.86,4.15h.15a31,31,0,0,0,2.53-4.15c-.89-.09-1.55-.14-2-.14Z" transform="translate(0 -0.15)"/><path class="a7c101ff-7f11-4766-b7e8-3643d9028805" d="M278.09,19.17q.74,0,8,4.36h.14a20.08,20.08,0,0,1,9.21-2.36h1.26a24,24,0,0,1,9.6,2.36q7-4.37,7.88-4.36,1,1.09,1,5.73v1.51a16.18,16.18,0,0,1-.78,4.75,20.88,20.88,0,0,1,3.13,10.47v1.13q0,10.34-9.88,17.37a21.06,21.06,0,0,1-10.86,3.23h-1.37q-9.92,0-17-9.11a20.4,20.4,0,0,1-3.73-11.49V41.63a20.58,20.58,0,0,1,3.09-10.47,17.86,17.86,0,0,1-.73-4.75V24.9Q277.07,20.27,278.09,19.17Zm11.1,23.34c0,3,1.72,5.21,5.14,6.61l1.86.28q4.32,0,6.47-4.88a14.33,14.33,0,0,0,.39-2.36q0-4.5-5.14-6.64l-1.86-.25c-2.91,0-5.06,1.63-6.47,4.89A10.33,10.33,0,0,0,289.19,42.51Z" transform="translate(0 -0.15)"/><path class="a7c101ff-7f11-4766-b7e8-3643d9028805" d="M322.73,21.14h34.39A34.78,34.78,0,0,1,361.23,25V63.08a.24.24,0,0,1-.28.28h-12.9a.24.24,0,0,1-.28-.28V32.28h-8.69v30.8c0,.19-.08.28-.24.28H325.76l-.28-.14.14-.67V58a1.29,1.29,0,0,0-.14-.67l.14-.56q-.15-17.32-.14-24.75-1.1-4.35-3-10.72Z" transform="translate(0 -0.15)"/></g></g></svg>