<?xml version="1.0" encoding="utf-8"?>
<!-- Generator: $$$/GeneralStr/196=Adobe Illustrator 27.6.0, SVG Export Plug-In . SVG Version: 6.00 Build 0)  -->
<svg version="1.1" id="图层_1" xmlns="http://www.w3.org/2000/svg" xmlns:xlink="http://www.w3.org/1999/xlink" x="0px" y="0px"
	 viewBox="0 0 649.4 727.8" style="enable-background:new 0 0 649.4 727.8;" xml:space="preserve">
<style type="text/css">
	.st0{fill:#666666;}
	.st1{fill:#333333;}
	.st2{fill:#6C63FF;}
	.st3{fill:#3F3D56;}
	.st4{fill:#2F2E41;}
	.st5{fill:#606060;}
</style>
<path class="st0" d="M362.9,172.9h-4V63.4c0-35-28.4-63.4-63.4-63.4H63.4C28.4,0,0,28.4,0,63.4l0,0v601c0,35,28.4,63.4,63.4,63.4
	l0,0h232.1c35,0,63.4-28.4,63.4-63.4V250.9h4V172.9z"/>
<path class="st1" d="M298,16.5h-30.3c4.7,11.5-0.8,24.6-12.3,29.3c-2.7,1.1-5.6,1.7-8.5,1.7H114c-12.4,0-22.5-10.1-22.5-22.5
	c0-2.9,0.6-5.8,1.7-8.5H64.8c-26.1,0-47.3,21.2-47.3,47.3v600.1c0,26.1,21.2,47.3,47.3,47.3l0,0H298c26.1,0,47.3-21.2,47.3-47.3l0,0
	l0,0V63.8C345.4,37.7,324.2,16.5,298,16.5L298,16.5z"/>
<path id="f3818c68-126c-4685-b4e0-2450731ccc2a-721" class="st0" d="M326.2,487.8H46.5c-2.9,0-5.2-2.3-5.2-5.2v-69.4
	c0-2.9,2.3-5.2,5.2-5.2h279.6c2.9,0,5.2,2.3,5.2,5.2v69.4C331.3,485.5,329,487.8,326.2,487.8z M46.5,410.2c-1.7,0-3.1,1.4-3.1,3.1
	v69.4c0,1.7,1.4,3.1,3.1,3.1h279.6c1.7,0,3.1-1.4,3.1-3.1v-69.4c0-1.7-1.4-3.1-3.1-3.1H46.5z"/>
<ellipse id="abdb74b7-e321-430b-89c2-b563f66442fc" transform="matrix(3.327795e-02 -0.9994 0.9994 3.327795e-02 -367.7073 515.8456)" class="st0" cx="82.8" cy="448" rx="21.7" ry="21.7"/>
<path id="addd02b1-b85b-481a-baea-1b0ba5ed9f4a-722" class="st0" d="M133,433.5c-2,0-3.6,1.7-3.6,3.7s1.6,3.5,3.6,3.6h170.9
	c2,0,3.7-1.6,3.7-3.6s-1.6-3.7-3.6-3.7l0,0h-0.1H133z"/>
<path id="a42dc2a4-5fb2-4ea8-b2b3-ce81bc256782-723" class="st0" d="M133,455.2c-2,0-3.6,1.7-3.6,3.7s1.6,3.5,3.6,3.6h170.9
	c2,0,3.7-1.6,3.7-3.6s-1.6-3.7-3.6-3.7h-0.1H133z"/>
<path id="b84687c4-e3b4-4975-8361-bf73c33c9ee5-724" class="st0" d="M326.2,603.8H46.5c-2.9,0-5.2-2.3-5.2-5.2v-69.4
	c0-2.9,2.3-5.2,5.2-5.2h279.6c2.9,0,5.2,2.3,5.2,5.2v69.4C331.3,601.5,329,603.8,326.2,603.8z M46.5,526.2c-1.7,0-3.1,1.4-3.1,3.1
	v69.4c0,1.7,1.4,3.1,3.1,3.1h279.6c1.7,0,3.1-1.4,3.1-3.1v-69.4c0-1.7-1.4-3.1-3.1-3.1H46.5z"/>
<ellipse id="fe3713e7-4e14-41f8-af1d-48b338e5371c" transform="matrix(3.327795e-02 -0.9994 0.9994 3.327795e-02 -483.5431 627.8887)" class="st0" cx="82.8" cy="563.9" rx="21.7" ry="21.7"/>
<path id="e34cf46a-1d6c-4c41-b5e1-331fa5bf8d4c-725" class="st0" d="M133,549.5c-2,0-3.6,1.7-3.6,3.7s1.6,3.5,3.6,3.6h170.9
	c2,0,3.7-1.6,3.7-3.6s-1.6-3.7-3.6-3.7l0,0h-0.1H133z"/>
<path id="e105039f-b7a6-49c8-8f81-87505f1b0ae5-726" class="st0" d="M133,571.2c-2,0-3.6,1.7-3.6,3.7s1.6,3.5,3.6,3.6h170.9
	c2,0,3.7-1.6,3.7-3.6s-1.6-3.7-3.6-3.7h-0.1H133z"/>
<path id="ad9187ec-89e0-4b9d-a4fb-dc654c09bafe-727" class="st0" d="M180.5,343.9c-54.3,0-98.4-44-98.4-98.3v-0.1c0-0.2,0-0.4,0-0.6
	c0.3-53.9,44.4-97.8,98.4-97.8c54.3,0,98.4,44.1,98.4,98.4C278.8,299.8,234.8,343.9,180.5,343.9L180.5,343.9L180.5,343.9z
	 M180.5,149.2c-52.9,0.1-95.9,42.8-96.3,95.7c0,0.2,0,0.4,0,0.6c0,53.2,43.1,96.3,96.3,96.3s96.3-43.1,96.3-96.3
	S233.7,149.2,180.5,149.2L180.5,149.2z"/>
<circle class="st1" cx="315.1" cy="422.8" r="40"/>
<path class="st2" d="M301.2,440.8c-0.1,0-0.1,0-0.2,0h-21.5c-5.7-0.1-10.3-4.8-10.2-10.6c0.1-5.6,4.6-10.1,10.2-10.2H301
	c0.1,0,0.2,0,0.3,0c5.7,0.1,10.3,4.8,10.3,10.5C311.5,436.3,306.9,440.8,301.2,440.8z"/>
<rect x="325.3" y="725.3" class="st3" width="324" height="2.2"/>
<path class="st2" d="M345.3,535.7c-0.3-0.4-0.5-0.8-0.6-1.3l-5.2-13.8c-1.3-3.4,0.5-7.1,3.8-8.4l115.2-43c3.4-1.3,7.1,0.5,8.4,3.8
	l5.2,13.8c1.3,3.4-0.5,7.1-3.8,8.4l0,0l-115.2,43C350.2,539.4,347,538.3,345.3,535.7L345.3,535.7z"/>
<path class="st4" d="M458.2,465.7l-46.9,18.7c-3.1,0.9-4.9,4.1-4.1,7.2l5.4,21.8c0.8,3.2,4.1,5.2,7.3,4.4c0.4-0.1,0.7-0.2,1.1-0.4
	l47-22.1c3.1-1.2,4.7-4.6,3.5-7.7l-5.6-18.3C464.8,466.1,461.3,464.5,458.2,465.7z"/>
<path class="st2" d="M544,601.3c-3,0.3-5.9-1.5-6.9-4.3L497,480.7c-1.2-3.4,0.6-7.1,4-8.3l0,0l14-4.8c3.4-1.2,7.1,0.6,8.3,4
	l40.1,116.3c1.2,3.4-0.6,7.1-4,8.3l-14,4.8C544.9,601.2,544.4,601.3,544,601.3z"/>
<path class="st4" d="M526.2,469.7l15.4,48c1.2,3-0.1,6.4-3,7.7l-20.3,9.7c-3,1.4-6.6,0.2-8-2.8c-0.2-0.4-0.3-0.7-0.4-1.1l-12.8-50.3
	c-1.1-3.1,0.6-6.5,3.7-7.6l17.7-7.3C521.7,464.9,525.1,466.5,526.2,469.7z"/>
<path class="st4" d="M479.6,726h-14.8c-3.6,0-6.5-2.9-6.5-6.5v-123c0-3.6,2.9-6.5,6.5-6.5h14.8c3.6,0,6.5,2.9,6.5,6.5v123
	C486.1,723.1,483.2,726,479.6,726z"/>
<path class="st4" d="M508.8,726H494c-3.6,0-6.5-2.9-6.5-6.5v-123c0-3.6,2.9-6.5,6.5-6.5h14.8c3.6,0,6.5,2.9,6.5,6.5v123
	C515.3,723.1,512.4,726,508.8,726z"/>
<path class="st5" d="M520.9,611h-67.1c-3.9,0-7-3.1-7-7V495c0-22.4,18.1-40.5,40.5-40.5s40.5,18.1,40.5,40.5v109
	C527.9,607.8,524.8,610.9,520.9,611z"/>
<path class="st4" d="M531,637.6h-34V445.4l0.6,0.2c19.7,5.4,33.3,23.3,33.4,43.7V637.6z"/>
<path class="st4" d="M475,637.6h-34V489.3c0-20.4,13.7-38.3,33.4-43.7l0.6-0.2V637.6z"/>
<ellipse transform="matrix(0.1602 -0.9871 0.9871 0.1602 35.3934 798.3999)" class="st2" cx="486.9" cy="378.4" rx="53.5" ry="53.5"/>
<path class="st4" d="M547.4,366.1c0,0,3-83-36-56c0,0-22.5-75.5-77.5,37.5l-16,16c0,0,72-10,139,21L547.4,366.1z"/>
<rect x="459.2" y="372.9" class="st4" width="10.8" height="2"/>
<rect x="493.2" y="372.9" class="st4" width="10.8" height="2"/>
<path class="st3" d="M367.6,540.8c-3,1.4-6.6,0.1-8-2.9l-34.5-74.4c-1.4-3-0.1-6.6,2.9-8s6.6-0.1,8,2.9l34.5,74.4
	C371.9,535.9,370.6,539.4,367.6,540.8z"/>
<path class="st2" d="M332.1,460.8c-2.2,0-4-1.8-4-4v-51h-50c-2.2,0-4-1.8-4-4s1.8-4,4-4h54c2.2,0,4,1.8,4,4v55
	C336.1,459,334.3,460.8,332.1,460.8z"/>
<path class="st3" d="M333.1,466.4c-24,11.2-52.6,0.7-63.7-23.3c-11.2-24-0.7-52.6,23.3-63.7c24-11.2,52.6-0.7,63.7,23.3
	C367.5,426.8,357.1,455.3,333.1,466.4z M297.7,390.3c-18,8.4-25.9,29.8-17.5,47.8S310,464,328,455.6s25.9-29.8,17.5-47.8
	C337.1,389.7,315.7,381.9,297.7,390.3L297.7,390.3z"/>
<path class="st0" d="M215.5,298c-5.5,0.4-11.9,0.3-18.4,0.2c-8-0.2-16.2,0-24.1-1.6c-5.1-1.1-10.2-0.4-15.3-0.4
	c-4.7,0.1-9.4,0.7-14.1,1.2c-4.3,0.4-8.6,1.2-12.9,0.4c-5.2-1-8.9-4-11.2-8.6c-3.4-6.9-3.1-13.7,1.5-19.9c2.3-3.1,5.7-4.8,9.2-6.2
	c0.9-0.4,1.8-0.7,2.8-1.1c0.6-0.2,0.7-0.6,0.4-1.1c-3.5-7.7-2.6-14.9,2.8-21.4c1.4-1.8,3.5-2.8,5.5-3.7c1.3-0.6,2.6-1.3,3.9-1.9
	c0.7-0.3,0.9-0.8,0.6-1.6c-2.5-8.5-0.8-16,5.4-22.4c2.2-2.2,5-3.4,8-4.1c0.5-0.1,0.9-0.2,1.3-0.3c1.5-0.5,1.6-0.9,1-2.4
	c-0.9-2.3-0.6-4.6,0-6.9c0.8-3,2.2-5.7,3.8-8.2c2.1-3.5,2.5-7,0.6-10.8c-0.7-1.4-0.3-1.9,1.3-1.8c1.9,0.2,3.8,0.9,5.5,1.6
	c6.4,2.5,12.1,6.3,17.4,10.8c3.5,3.1,6.7,6.3,8.8,10.6c2,4.1,2.8,8.5,2,13c-0.2,1.4-0.2,1.4,1.2,1.4c6.1,0.2,11.7,4.1,13.9,9.7
	c1,2.6,0.9,5.3,0.3,7.9c-0.7,3.2-0.7,3.1,2.3,4.3c4.1,1.6,7.9,3.9,10,8c2,3.8,2.2,7.8,1.6,12c-0.3,2.1-0.9,4.1-1.8,6.1
	c-0.4,0.9-0.2,1.3,0.8,1.5c3.4,0.6,6.5,1.8,9.2,3.9c4.6,3.5,8.7,11.8,6,19.2c-1.2,3.3-3.6,5.6-6.4,7.4c-4.3,2.8-9.1,4.4-14.3,4.8
	C221.5,297.8,219,298.1,215.5,298L215.5,298z M158.2,269c-0.9,0.5-1.1,1.2-0.7,2.1c0.5,0.9,1.1,1.8,1.9,2.5c6.3,5.9,13.8,8.9,22.4,9
	c1.4,0,2.7-0.1,4.1-0.3c5.5-0.7,10.2-3.1,14.6-6.2c1.8-1.3,3.5-2.7,4.7-4.5c0.7-1,0.5-1.9-0.5-2.6"/>
</svg>
