<?xml version="1.0" encoding="utf-8"?>
<!-- Generator: $$$/GeneralStr/196=Adobe Illustrator 27.6.0, SVG Export Plug-In . SVG Version: 6.00 Build 0)  -->
<svg version="1.1" id="_图层_1" xmlns="http://www.w3.org/2000/svg" xmlns:xlink="http://www.w3.org/1999/xlink" x="0px" y="0px"
	 viewBox="0 0 451.7 432.6" style="enable-background:new 0 0 451.7 432.6;" xml:space="preserve">
<style type="text/css">
	.st0{fill:#FFFFFF;}
</style>
<path class="st0" d="M345.6,431.5c-19.4,1.3-42,1.2-64.7,0.7c-28.3-0.7-56.9,0.1-84.8-5.7c-18.1-3.8-35.8-1.5-53.7-1.3
	c-16.6,0.2-33.2,2.5-49.7,4.1c-15,1.5-30.1,4.1-45.3,1.3c-18.3-3.4-31.3-14-39.4-30.2c-12.1-24.2-10.8-48.1,5.4-70.1
	c8-10.9,20.1-16.8,32.5-21.7c3.2-1.3,6.4-2.5,9.7-3.7c2.2-0.8,2.3-2,1.4-4c-12.4-27.1-9-52.3,9.8-75.4c5.1-6.2,12.2-9.7,19.5-13
	c4.6-2.1,9.1-4.5,13.6-6.7c2.5-1.2,3-2.9,2.2-5.5c-8.8-29.9-2.7-56.4,19-78.8c7.6-7.8,17.6-11.9,28.1-14.4c1.6-0.4,3.2-0.6,4.6-1.2
	c5.2-1.9,5.5-3.2,3.4-8.3c-3.2-8-2.2-16.2-0.1-24.3c2.8-10.4,7.7-19.9,13.2-29c7.5-12.3,8.9-24.8,2.2-38c-2.4-4.8-0.9-6.8,4.4-6.2
	c6.8,0.7,13.2,3.2,19.5,5.7c22.7,8.9,42.7,22.1,61.1,38.1c12.4,10.8,23.6,22.3,31,37.2c7.2,14.5,9.7,29.8,7,45.8
	c-0.8,4.8-0.7,4.9,4.2,5c21.6,0.6,41.2,14.3,48.8,34.2c3.5,9.2,3.1,18.5,1.1,27.9c-2.4,11.1-2.3,10.9,8,15
	c14.5,5.8,27.7,13.7,35.2,28c6.9,13.2,7.8,27.5,5.7,42.1c-1.1,7.4-3.2,14.6-6.3,21.4c-1.5,3.2-0.8,4.5,2.7,5.2
	c11.8,2.1,22.8,6.2,32.5,13.6c16.1,12.3,30.5,41.5,21.2,67.5c-4.1,11.6-12.5,19.8-22.5,26.2c-15.2,9.9-32,15.5-50.2,16.9
	C366.9,430.7,358,431.7,345.6,431.5L345.6,431.5z M143.9,329.6c-3.1,1.7-3.9,4.2-2.3,7.4c1.7,3.3,3.8,6.3,6.6,8.9
	c22.3,20.6,48.4,31.5,78.9,31.6c4.8,0.1,9.5-0.5,14.3-1.1c19.2-2.4,35.8-10.8,51.3-21.9c6.3-4.5,12.2-9.5,16.6-16
	c2.4-3.6,1.7-6.6-1.7-9"/>
</svg>
