<?xml version="1.0" encoding="utf-8"?>
<!-- Generator: $$$/GeneralStr/196=Adobe Illustrator 27.6.0, SVG Export Plug-In . SVG Version: 6.00 Build 0)  -->
<svg version="1.1" xmlns="http://www.w3.org/2000/svg" xmlns:xlink="http://www.w3.org/1999/xlink" x="0px" y="0px"
	 viewBox="0 0 444 444" style="enable-background:new 0 0 444 444;" xml:space="preserve">
<style type="text/css">
	.st0{display:none;}
	.st1{display:inline;}
	.st2{clip-path:url(#SVGID_00000001630187617413983560000006414885836601290639_);}
	.st3{fill:#FFFFFF;}
</style>
<g id="图层_2" class="st0">
	<rect class="st1" width="444" height="444"/>
</g>
<g id="图层_1">
</g>
<g id="图层_3">
	<g>
		<defs>
			<path id="SVGID_1_" d="M245.8,294.6c-2.4,0-5.1,0-8.2-0.1c-1.5,0-3-0.1-4.4-0.1c-7-0.1-14.3-0.2-21.8-1.8
				c-1.3-0.3-2.8-0.4-4.7-0.4c-1.3,0-2.7,0.1-4.1,0.1c-1.4,0.1-2.8,0.1-4.3,0.1c-3.1,0-6.5,0.4-9.7,0.8c-1.2,0.1-2.4,0.3-3.6,0.4
				c-0.6,0.1-1.3,0.1-2,0.2c-2.5,0.3-5,0.6-7.8,0.6c-2.2,0-4.2-0.2-6.1-0.5c-8.4-1.6-14.9-6.5-18.8-14.3
				c-5.3-10.6-4.4-21.7,2.5-31.1c2.2-2.9,4.9-5.3,8.6-7.3c-1.1-8.2,1.3-16.1,7-23.1c2.1-2.5,4.5-4.1,6.8-5.4
				c-0.7-9.4,2.5-18,9.4-25.1c2-2,4.2-3.6,6.9-4.9c0.2-1.7,0.5-3.2,0.8-4.3c1.2-4.6,3.3-8.4,5-11.1c0.2-0.3,0.3-0.5,0.3-0.6
				c0,0,0-0.1-0.1-0.1c-2-4-1.9-8.3,0.2-11.7c2.1-3.4,5.7-5.4,10-5.4c0.5,0,1.1,0,1.7,0.1c3.3,0.3,6.3,1.5,8.3,2.3
				c7.2,2.8,13.9,7,20.6,12.8c3.9,3.4,8.3,7.7,11.4,13.9c1.7,3.4,2.8,7,3.2,10.7c6.6,2.7,11.9,8,14.4,14.6c1,2.7,1.5,5.5,1.4,8.5
				c4.9,2.7,8.4,6.2,10.8,10.7c2.7,5.2,3.6,10.9,2.9,17.5c1.4,0.8,2.8,1.6,4.1,2.6c7.9,6.1,14,19.1,9.6,31.3
				c-1.8,5.2-5.3,9.4-10.7,12.8c-5.8,3.8-12.3,5.9-19.3,6.5l-0.8,0.1c-2.3,0.2-4.6,0.4-7.8,0.4c-0.2,0-0.4,0-0.6,0
				C253.5,294.5,250,294.6,245.8,294.6z M444,0H0v444h444V0z"/>
		</defs>
		<clipPath id="SVGID_00000000916049487335317750000003611307413102269570_">
			<use xlink:href="#SVGID_1_"  style="overflow:visible;"/>
		</clipPath>
		<g style="clip-path:url(#SVGID_00000000916049487335317750000003611307413102269570_);">
			<path class="st3" d="M237,322.5c3,0,6.3,0.1,10.5,0.1c1.9,0,10.3,0,10.3,0c5.6,0,7.1,3.4,7.4,6.3c0.4,4.6,2.6,5.2,4.5,5.3l0.1,0
				c1.9,0,4.4-0.5,4.8-5.3c0.3-2.9,1.8-6.3,7.4-6.3c0,0,4,0,4.9,0c2.1,0,3.7,0,5.2-0.1c5.3-0.2,5.9-2.3,6.1-4.1
				c0.2-2.1-0.3-4.3-5.4-5.2c-4.1-0.7-6.2-2.7-6.4-6.2c-0.2-3.8-1.8-5.4-5.6-5.6c-1.9-0.1-6.3-1.1-6.2-7.6c0.1-4.5,2.6-7.2,6.7-7.2
				c6,0,12.1,0,18.1,0c6.2,0,12.5,0,18.7,0c3.8,0,6.3,2.2,7.1,6.1c1.1,5.2,1.8,5.8,6.9,5.9c1.3,0,2.5,0,3.8,0c1.2,0,2.5,0,3.7-0.1
				c5.5-0.2,6.1-2,6.3-4.3c0.2-2.5-0.1-4.2-5.4-5.1c-4.1-0.7-6.3-3.3-6.2-7.5c0.1-4.3,2.3-6.8,6.2-7.1c3.7-0.2,5.5-1.9,5.8-5.7
				c0.4-4.1,3-6.5,7.3-6.5l1.9,0l5.6,0c1.5,0,3,0,4.4,0c4.7,0,7.5,2.8,7.5,7.4c0,1.4,0,2.8,0,4.2c0,1.8,0,3.7,0.1,5.5
				c0.3,6.1-2.4,9.4-8.1,9.8c-2.6,0.2-4,1.8-4,4.6c0.1,2.6,1.6,4.1,4.4,4.3c2.3,0.2,4.5,0.3,6.8,0.3c1.5,0,3,0,4.5-0.1
				c3.6-0.2,5.1-1.7,5.2-5.5c0.2-7.3,0.1-14.8,0-22.1c0-4.6-2.7-5.3-4.7-5.5c-4.2-0.4-6.6-2.6-7.4-6.8c-0.9-4.5-1.5-5.1-6.1-5.1
				c-7.4,0-14.7,0-22.1,0c-7.6,0-15.1,0-22.7,0c-4.9,0-5.7,2.1-5.9,4.1c-0.1,1.9,0.1,4.1,5.2,4.8c4.6,0.7,7.1,3.5,6.8,8
				c-0.2,4.5-3.1,7-7.9,7c-1.2,0-5.8,0-7,0c-0.9,0-1.9,0-2.8,0c-7-0.1-9-2.1-9-9c0-4.7,0-9.5,0-14.2c0-6,0-12.1,0-18.2
				c0-4.7-1-5.9-5.2-6.5c-5.9-0.9-7-4.9-6.8-8c0.1-2.6,1.3-7,7.9-7c0,0,5.3,0,6.5,0c1.5,0,3,0,4.5,0l0.2,0c2.4,0,4.2,0.7,5.5,2
				c1.3,1.3,2,3.3,2,5.8c0,3.2,0,6.7,0,10.1c0.1,5.1,2.2,5.8,4.2,6c0.2,0,0.4,0,0.7,0c1.7,0,3.6-0.6,4.4-5.1
				c0.8-4.4,3.2-6.6,7.6-6.6h0c3,0,6.8,1.3,7.2,7.1c0.2,3.2,1.9,4.6,5.4,4.7l1.9,0c1.4,0,2.7,0,4.1,0c1.4,0,2.8,0,4.1-0.1
				c4.6-0.1,5.3-2.3,5.5-4.1c0.1-1.8-0.2-4.2-4.8-4.7c-4.7-0.5-7-3.2-6.9-7.8c0.1-4.3,2.4-6.8,6.9-7.3c4.5-0.6,4.9-2.9,4.8-4.7
				c-0.1-1.7-0.8-4-5.4-4.2c-1.5,0-3-0.1-4.2-0.1l-3.1,0c-1.4,0-2.8,0-4.2-0.1c-4.2-0.1-6.7-2.7-6.9-7c-0.2-4.2,1.8-6.9,5.8-7.8
				c5.8-1.3,6.2-1.8,6.3-7.6c0.1-2.2,0.1-4.6-0.1-6.9c-0.3-5.4-1.6-6.5-6.9-6.7c-1.5,0-3.2-0.1-5.2-0.1c-1.4,0-2.9,0-4.3,0l-0.3,0
				c-4,0-6.5-2.1-7.3-6.2c-1-4.9-1.7-5.5-6.8-5.5c-3.7,0-7.3,0-11,0c-3.4,0-6.9,0-10.4,0c-6,0-7.6-3.7-7.9-6.9c-0.4-4.5-2.7-5-4.4-5
				l-0.2,0c-1.7,0-4.1,0.6-4.4,4.8c-0.3,4.5-3.1,7-7.9,7l-0.4,0c-0.9,0-1.8,0-2.7,0c-0.9,0-1.8,0-2.7,0c-2.1,0-3.8,0-5.3,0.1
				c-3.6,0.2-4.9,1.4-5,5c-0.1,6.9-0.2,14.3,0,22.6c0.1,5.1,3.2,5.1,4.3,5.2l0.2,0c2.8,0,4.3-1.8,4.4-5.3c0.1-2.1,0.1-4.2,0.1-6.3
				c0-1.6,0-3.2,0-4.8c0.1-4.7,2.9-7.4,7.4-7.4c0,0,0.1,0,0.1,0c4.6,0,7.3,2.8,7.4,7.6c0,1.5,0,3,0,4.6c0,2,0,4.1,0,6.1
				c0.1,4.2,0.9,5.1,5,5.7c4.4,0.6,6.7,3.1,6.7,7.5c0,4.6-2.4,7.3-6.8,7.5c-3.2,0.2-4.7,1.6-4.9,4.8c-0.3,4.4-2.9,6.9-7.5,6.9
				c-4.4,0-7-2.2-7.6-6.6c-0.6-4.3-1.5-5.1-6-5.1c-3.5,0-7-0.1-10.5-0.1c-3.4,0-6.9,0-10.3,0.1c-4.8,0.1-6,1.3-6,6.2
				c-0.1,7.4-0.1,14.8,0,21.7c0,6.6-4.4,7.7-7.1,7.8c-0.1,0-0.3,0-0.4,0c-4.6,0-7.3-2.4-7.5-6.9c-0.2-3.2-1.6-4.6-4.9-4.8
				c-4.4-0.3-6.8-2.9-6.8-7.5c0-4.6,2.4-7.3,6.8-7.5c2.2-0.1,3.5-0.8,4.2-2.2c0.9-1.8,0.8-3.5-0.4-5c-0.8-1.1-1.9-1.6-3.2-1.6
				c-0.5,0-1,0.1-1.5,0.2c-2,0.5-3,1.8-3.1,4c-0.4,6.1-4.2,7.4-7.4,7.5l-0.2,0c-4.7,0-7.3-2.4-7.6-7.1c-0.3-4-2.6-4.5-4.5-4.5
				c0,0,0,0,0,0c-1.9,0-4.1,0.6-4.4,4.7c-0.3,4.2-2.6,6.6-6.4,6.9c-3.7,0.2-5.4,1.9-5.8,5.7c-0.4,4.2-3.1,6.5-7.6,6.5l-0.2,0
				c-1.4,0-2.8,0-4.2,0c-1.8,0-3.7,0-5.5,0c-4.7,0.1-5.7,0.9-6.4,5.4c-0.7,4.2-3.1,6.3-7.3,6.3c-1.8,0-3.5,0-5.3,0l-6.7,0
				c-4.7,0-7.4-2.4-7.6-6.8c-0.2-3.4-1.7-4.8-5.2-5c-2.4-0.1-6.4-1.3-6.5-7.3c-0.1-6.3,4.2-7.5,6.7-7.7c3.3-0.2,4.8-1.6,5-4.7
				c0.2-4.5,3-7,7.8-7c0,0,3.1,0,4.1,0c1.9,0,4.4,0,6.9-0.1c3.4-0.1,4.9-1.5,5.1-4.5c0.3-4.8,2.9-7.5,7.4-7.5l0.2,0
				c3.1,0,7,1.3,7.6,7.7c0.3,2.8,1.8,4.2,4.6,4.2c2.7,0,4-1.4,4.2-4.2c0.3-5,3-7.6,8.1-7.9c1.8-0.1,2.9-0.8,3.6-2.3
				c0.5-1.2,0.6-2.5,0.1-3.7c-0.5-1.1-1.3-2-2.5-2.4c-0.6-0.2-1.2-0.3-1.8-0.3c-2.1,0-3.8,1.5-4.2,3.8c-0.6,3.3-1.5,7.9-7.6,7.9
				c0,0-0.1,0-0.1,0c-6.2-0.1-7-4.8-7.4-8l0-0.2c-0.2-1.5-0.9-3.4-4.3-3.5c-2.1-0.1-4.1-0.1-6.2-0.1c-1.9,0-3.8,0-5.7,0.1
				c-2.9,0.1-4.4,1.5-4.5,4.1c-0.3,6.9-5.2,7.7-8.9,7.7l-0.2,0c-5.2,0-11.3-0.1-17.2-0.1c-5.6,0-10.5,0-15.2,0.1l-0.5,0
				c-3.8,0-8.9-0.8-9.1-8.2c-0.1-2.2-1.7-3-3.1-3.4c-0.5-0.1-0.9-0.2-1.4-0.2c-1.3,0-2.5,0.6-3.4,1.7c-0.6,0.7-0.7,1.6-0.9,2.8
				c-0.1,0.5-0.1,0.9-0.2,1.4c-0.5,2.6-2.2,5.8-7.4,5.8c-0.3,0-0.6,0-0.9,0c-4-0.2-6.3-2.8-6.3-6.9c0-2.4,0-4.7,0-7.1
				c0-1.6,0-3.3,0-4.9c0-4.7,2.5-7.5,7.1-7.8c3.1-0.2,4.5-1.6,4.7-4.6c0.3-4.4,2.8-7,6.9-7c4.1,0,8.2-0.1,12.3-0.1
				c4.4,0,8.8,0,13,0.1c4.1,0,6.6,2.6,6.7,7.1c0.2,6.6-5.2,7.3-8.1,7.7c-2.2,0.3-3.4,1.6-3.7,3.9c-0.2,2,0.4,3.5,2.1,4.4
				c0.8,0.4,1.5,0.6,2.3,0.6c1,0,2-0.4,3-1.2c1-0.8,1.5-2,1.6-3.7c0.3-4.7,3.1-7.2,7.8-7.2l0.3,0c1.3,0,2.7,0,4,0c1.8,0,3.5,0,5.3,0
				c5.2-0.1,5.7-0.5,6.6-5.6c0.6-3.6,2.6-5.5,6.2-6.1c4.9-0.9,5.4-1.5,5.4-6.7c0-9.7,0.1-21.2,0-32.8c0-5.1,2.3-7.9,7.2-8.5
				c3.7-0.5,4.8-1.8,5-5.9c0.1-2,0.1-4,0.1-6c0-1.7,0-3.4,0-5.1c0.1-4.4,2.7-6.9,7.2-6.9l0.4,0c4.4,0.1,6.9,2.6,6.9,6.9
				c0,1.3,0,2.6,0,3.8c0,2,0,3.9,0,5.9c0.1,5.5,0.7,6.3,6,7.3c5,0.9,6.1,4.3,6.1,7l0,2.4c0,3.4,0.1,7-0.1,10.5
				c-0.1,4.2-2.8,6.7-7.3,6.7c-6.8,0-7.6-5.8-7.8-8c-0.3-2.4-1.8-3.9-4-3.9c-0.4,0-0.8,0-1.2,0.1c-3.6,0.8-3.5,4-3.1,5.8
				c0.4,2,1.5,2.7,4.5,3c3.2,0.3,7,2,6.8,8c-0.1,3.2-0.1,6.6,0,10.6c0.1,5.1-2.4,8-7.4,8.4c-3,0.3-4.5,1.9-4.3,4.6
				c0.2,2,0.9,4.1,5,4.2c1.8,0,3.6,0.1,5.4,0.1c1.4,0,2.8,0,4.3,0c4.9-0.1,5.4-0.5,6.4-5.4c0.8-3.9,3-6.1,6.8-6.3
				c3.4-0.2,4.8-1.7,5-5.3c0.2-4.2,2.9-6.8,7-7c3.4-0.2,4.9-1.7,5.2-5.1c0.3-4.2,2.8-6.6,7.2-6.6l0.2,0c4.4,0,7,2.4,7.3,6.8
				c0.2,3.2,1.7,4.7,4.9,4.9c2.4,0.1,4.3,0.9,5.5,2.4c1.3,1.5,1.8,3.5,1.6,5.9c-0.2,3.1-1.9,6.7-8.2,6.7c-0.8,0-1.6,0-2.4,0
				c-0.9,0-1.9,0-2.8,0c-1.7,0-3.9,0-6.2,0.2c-2.8,0.2-4.1,1.6-4.1,4.4c0,2.7,1.4,4.1,4.2,4.3c1.5,0.1,3.2,0.1,5.2,0.1
				c1.1,0,2.3,0,3.4,0l1.4,0c5,0,5.8-0.7,6.7-5.5c0.7-3.7,2.7-5.7,5.9-6c4.9-0.5,5.8-2.2,5.7-4.9c-0.1-2.5-1.1-4.2-5.6-4.7
				c-3.7-0.4-5.8-2.8-5.9-6.7c-0.1-1.6,0-4,1.7-5.7c1.8-1.8,4.5-2.1,6.8-2.1c4.8,0,9.6,0,14.4,0l12.5,0c5.8,0,11.7,0,17.5,0
				c5.7,0,6.8-1.1,6.8-6.8c0-1.7,0-3.3,0-5c0-1.7,0-3.5,0-5.2c0.1-4,2.4-6.6,6-6.8c4-0.2,5.8-2,6.2-6.3c0.3-3.1,2.2-5.2,5.1-5.8
				c0.7-0.1,1.4-0.2,2-0.2c2.2,0,4.1,0.8,5.5,2.4c1.8,1.9,1.8,4.2,1.8,6l0,0.4c0,3.7,0,7.3,0,11c0,7.3,0,14.9,0.1,22.3
				c0,4.5,1.3,5.7,5.9,5.9c1.7,0,3.4,0.1,5.1,0.1c1.5,0,2.8,0,4.1-0.1c0.2,0,0.5,0,0.7,0c5.1,0,7.8,2.5,8.2,7.5
				c0.2,2,0.9,4.6,5.5,4.8c1.8,0,3.8,0.1,5.8,0.1c1.4,0,2.6,0,3.8-0.1c0.2,0,0.4,0,0.6,0c5.2,0,7.9,2.6,8.2,7.6
				c0.1,1.4,0.7,3.8,3.7,4c6.8,0.4,8.2,4.8,8.7,8.7c0.3,2.5,2.2,3.6,3.9,3.6c1,0,2-0.4,2.9-1.1c1.4-1.2,2-2.6,1.6-4.4
				c-0.5-2.2-1.9-3.4-4.1-3.6c-4.7-0.4-7.3-2.8-7.7-7.2c-0.3-3.1-1.8-4.6-5.1-4.8c-4.3-0.3-6.8-3.1-6.8-7.6l0-2.6c0-2.8,0-5.6,0-8.4
				c-0.2-6.4,3.8-7.9,7.2-8.2c2.9-0.2,3.7-1.5,4.1-2.7c0.5-1.3,0.5-2.8-0.1-3.9c-0.5-1-1.4-1.8-2.5-2.2c-0.5-0.2-1-0.2-1.5-0.2
				c-2.1,0-3.8,1.5-4.4,3.9c-1.9,7.4-2.6,8-10.1,8c-3.4,0-6.8,0-10.1,0c-3,0-6,0-9,0c-7.8,0-9.5-1.7-9.5-9.3c0-4.1,0-8.2,0-12.3
				c0-6.2,0-12.5,0-18.8c0-5.7-0.6-6.4-6.3-7.6c-4.9-1-5.7-4.4-5.8-6.3c-0.1-4.1-0.1-8.5,0-13.9c0.1-3.4,2.1-5.6,5.7-6.4
				c5.8-1.2,6.3-1.8,6.4-7.5c0.1-3.5,0-6.2-0.1-8.7c-0.3-4.1-2.7-4.8-4.4-4.9c-4.8-0.4-7.3-2.9-7.7-7.7c-0.2-2.8-1.6-4.1-4.5-4.1
				l-0.3,0c-2,0-4,0-6,0c-2.1,0-3.9,0-5.6,0.1c-3,0.1-4.4,1.5-4.6,4.5c-0.2,3.5-0.1,6.9-0.1,10.1c0.1,4.5,0.8,5.3,5.2,6
				c4.6,0.6,7,3.4,7,7.8c0,6.9,0,13.8,0,20.7l0,14.8c0,4.8-2.6,7.4-7.4,7.5l-0.1,0c-2.4,0-4.3-0.7-5.6-1.9c-1.3-1.3-2-3.2-1.9-5.8
				l0-1.6c0-3.2,0.1-6.5-0.1-9.8c-0.2-2.9-1.6-4.3-4.2-4.3c-0.1,0-0.2,0-0.3,0c-2.8,0.1-4.1,1.5-4.2,4.3c-0.2,3.8-0.2,7.2,0,10.5
				c0.2,5.5-2.3,8.4-7.5,8.8c-2,0.2-4.6,0.9-4.7,5.5l0,0.7c0,3.1-0.1,6.3,0,9.4c0.1,2.8-0.6,4.8-1.9,6.2c-1.2,1.3-3,1.9-5.4,1.9
				c-2.3,0-4.1-0.6-5.4-1.9c-1.3-1.3-2-3.3-1.9-6c0.1-6.9,0.1-14.4,0-21.7c-0.1-4.2-1.2-5.5-5.3-6.1c-4.6-0.6-6.9-3.3-6.9-7.9
				c0-2.9,0-5.8,0-8.6l0-2c0-3.6-1.4-5.2-4.6-5.4c-5.7-0.4-7-4.2-7.1-7.2c-0.1-4.7,2.4-7.5,7.1-7.8c2.1-0.2,3.2-0.8,3.9-2.1
				c1-1.8,0.9-3.5-0.2-5.1c-0.8-1.1-1.9-1.7-3.3-1.7c-0.4,0-0.9,0.1-1.4,0.2c-2,0.5-3.1,1.7-3.2,3.8c-0.4,6.5-4.3,7.9-7.4,8l-0.2,0
				c-3.2,0-7.2-1.4-7.6-8.1c-0.2-2.4-1.5-3.7-3.9-3.9c-4.9-0.3-7.5-2.8-7.8-7.5c-0.2-2.9-1.7-4.2-4.6-4.2l-0.1,0
				c-2.7,0-4.1,1.4-4.4,4.2c-0.4,4.5-2.8,7-7.3,7.5c-1.8,0.2-3.1,0.8-3.8,1.7c-0.6,0.8-0.9,1.8-0.7,3.1c0.3,2.5,1.5,3.8,3.9,4
				c0.2,0,0.5,0,0.7,0c1.7,0,3.6-0.5,4.2-4.5c0.6-4.7,3.1-7.1,7.6-7.1l0.1,0c4.4,0,7.1,2.5,7.4,7c0.2,3.1,1.6,4.5,4.5,4.7
				c4.6,0.3,7.3,3.2,7.2,7.8c-0.1,4.4-2.6,7-7,7.3c-2.6,0.2-3.4,1.2-3.9,2.1c-1,1.8-0.9,3.4,0.2,5.1c0.8,1.1,1.8,1.7,3.3,1.7
				c0.4,0,0.9,0,1.4-0.1c2-0.4,3.1-1.6,3.2-3.8c0.4-6.7,4.9-7.7,7.5-7.7c0.4,0,0.8,0,1.3,0.1c6.6,0.7,6.5,6.6,6.4,8.8
				c-0.1,3.4-0.1,6.5,0,9.2c0.1,4.3,0.9,5.3,4.9,5.8c4.5,0.6,6.8,3.1,6.8,7.4c0,3.6,0,7.3,0,10.9c0,4.4,0,8.7,0,13.1
				c0,4.6-2.5,7.1-7.2,7.2l-0.1,0c-2.3,0-4.1-0.6-5.4-1.9c-1.3-1.3-1.9-3.1-1.9-5.6l0-1.3c0-3.2,0.1-6.5-0.1-9.7
				c-0.1-2.4-1-5.2-4.6-5.2l-0.2,0c-2.8,0.1-4.3,1.8-4.5,5.1c-0.2,3.1-0.2,6.5-0.1,10.5c0.1,2.7-0.5,4.7-1.9,6c-1.3,1.3-3.2,2-5.6,2
				c-0.1,0-0.3,0-0.4,0c-1.4,0-2.8-0.1-4.1-0.1c-1.7,0-3.5,0-5.2,0l-1.3,0c-2.3,0-7.7,0-8.2-6.4c-0.3-3.5,0.8-7.7,7.5-8.4
				c1.9-0.2,4.4-0.9,4.6-5.3c0.1-3.4,0.1-6.6,0-9.6c-0.1-4.3-1.2-5.5-5.3-6.1c-4.5-0.6-6.8-3.3-6.8-7.9c0-1.2,0-2.4,0-3.6
				c0-2.3,0-4.7-0.1-7c-0.2-5.4-3.3-5.4-4.4-5.4l-0.1,0c-1,0-4.1,0.1-4.3,5.2c-0.1,3.4-0.1,6.9,0,10.1c0.1,5.3-2.2,8.2-6.8,8.5
				c-0.3,0-0.6,0-0.9,0c-3.1,0-7-1.3-7.5-7.6c-0.2-2.7-1.6-3.9-4.6-4l-2-0.1c-2.5-0.1-5.2-0.2-7.7-0.2l-0.5,0
				c-6.1,0-9.1-2.8-9.4-8.5c-0.1-2.9-2.6-3.4-4.1-3.4l-0.2,0c-1.5,0-3.9,0.4-4.1,3.1c-0.4,5.7-3.3,8.7-9.3,9.3
				c-2.6,0.3-2.9,2.7-2.9,4.1c0,2.3,1.1,3.7,3.3,4.2c0.5,0.1,0.9,0.2,1.3,0.2c1.5,0,2.7-0.8,3.6-2.3c0.5-0.8,0.7-2,0.8-3.2l0.1-0.4
				c0.6-3.9,3.3-6.1,7.5-6.1l0.1,0c4.2,0,6.8,2.7,6.8,7.1c0.1,8.3,0,16.5,0,24.9c0,4.4-2.7,6.9-7.3,6.9l-0.1,0
				c-4.2,0-6.8-2.4-7.1-6.7c-0.2-2.5-0.9-3.8-2.4-4.6c-0.8-0.4-1.5-0.5-2.2-0.5c-1,0-1.9,0.4-2.9,1c-0.9,0.7-1.8,1.8-1.3,4.4
				c0.4,2.1,1.6,3.2,3.7,3.4c2.2,0.2,7.9,0.8,7.9,7.4c0,3.6,0,7.2,0,10.8c0,4.5,0,9.1,0,13.6c0,3.9-2.2,6.5-5.6,6.7
				c-4.5,0.3-6.4,2.2-6.7,6.8c-0.2,2-1.3,5.5-7.2,5.5c-4,0-6.7-2.1-6.9-5.4c-0.3-4.6-2.2-6.5-6.7-6.9c-3.7-0.3-5.9-3-5.8-7.1
				c0.1-4,2.2-6.6,5.9-7.2l0.6-0.1c1.2-0.2,2.3-0.4,3.2-0.8c1.5-0.7,2.3-2,2.3-3.9c0-1.9-0.8-3.1-2.4-3.9c-0.7-0.3-1.4-0.5-2.1-0.5
				c-1,0-2,0.4-2.9,1.1c-0.9,0.7-1.3,1.8-1.6,3.8c-0.7,5.7-4.4,6.9-7.4,6.9c-4.5,0-7-2.4-7.4-6.9c-0.3-4.4-2.8-4.9-4.6-4.9l-0.1,0
				c-1.9,0-3.9,0.6-4.3,4.9c-0.4,4.4-3.1,6.9-7.6,6.9c-4.4,0-7-2.4-7.4-6.9c-0.3-4.4-2.8-4.9-4.7-4.9c0,0,0,0,0,0
				c-1.9,0-3.8,0.6-4.3,4.9c-0.5,4.2-3.5,7.1-7.5,7.1c-1.1,0-2.2-0.2-3.3-0.6c-3.4-1.3-3.9-4.3-4.2-6.4c0-0.3-0.1-0.6-0.2-1
				c-0.5-2.6-1.9-3.9-4.3-3.9c-0.2,0-0.3,0-0.5,0c-1.8,0.1-3.9,0.7-3.9,4.5c0,2.4,0,4.7,0,7.1l0,4c0,3.4,1.3,4.8,4.4,5.1
				c4.3,0.3,6.7,2.7,7.3,6.9c0.6,4.1,1.8,5.2,6.1,5.3c1.7,0.1,3.4,0.1,5.1,0.1l1.1,0c1.5,0,3.2,0,4.8,0.1c4.2,0.1,6.7,2.7,6.7,7.1
				c0,2.3-0.6,4.2-1.9,5.5c-1.3,1.3-3.1,1.9-5.6,1.9c0,0,0,0,0,0c-3.2,0-6.3,0-9.5,0c-3.8,0-7.6,0-11.4,0.1
				c-6.4,0.1-7.2,0.9-7.3,7.2c0,1.1,0,2.2,0,3.3c0,1.7,0,3.4,0,5.1c-0.1,3.6,1.2,5.2,4.5,5.4c4.7,0.4,7.2,3.1,7.2,7.7
				c-0.1,4.3-2.3,6.8-6.8,7.4c-4.1,0.6-4.8,1.4-4.8,5.7c0,5.3,0,10.7,0,15.9c0,2.3,0,4.5,0,6.8l0,6.3c0,5.2,0,10.6,0,15.9
				c0,5.2,1,6.2,6.3,6.2c3.5,0,6.9,0,10.4,0l11.3,0c4.7,0,7.5,2.7,7.6,7.3c0.1,4.7-2.6,7.5-7.3,7.6c-2,0.1-4,0.1-6.4,0.1
				c0,0-4,0-4.7,0c-3.6,0-5.2,1.4-5.4,4.7c-0.3,4.4-2.7,6.8-7.2,7.1c-3.1,0.2-4.5,1.7-4.5,4.6c0,1.9,0.5,4.2,4.5,4.6
				c5.7,0.5,7,4.3,7,7.3c0.1,4.5-2.4,7.1-7.3,7.5c-3,0.3-4.3,1.7-4.2,4.7c0.1,2.7,1.3,4,3.9,4.2c0.2,0,0.4,0,0.5,0
				c3.2,0,4-3,4.2-4.7c0.5-4.6,3-6.9,7.5-7.2c2.8-0.2,4.2-1.6,4.3-4.4c0.1-3.1,1.5-6.9,7.4-7.5c3.4-0.3,4.9-2.2,4.9-5.9
				c0-1.7,0-8.5,0-10.2c0-6.1,3.6-7.5,6.6-7.7c0.2,0,0.5,0,0.7,0c4.4,0,7,2.4,7.5,6.7c0.4,3.4,1.9,4.9,5.3,5.1
				c4.2,0.3,6.6,2.9,6.6,7.3c0,1.4,0,2.8,0,4.2c0,2.3,0,4.6,0.1,6.9c0.2,6.7-3.9,8.3-7.4,8.5c-3,0.2-3.8,1.8-4.1,3
				c-0.4,1.4-0.2,2.8,0.4,3.9c0.6,1,1.5,1.6,2.7,1.9c0.4,0.1,0.8,0.1,1.2,0.1c2.3,0,3.9-1.7,4.3-4.7c0.3-1.9,1-7,7-7.2
				c0.2,0,0.3,0,0.5,0c3,0,6.8,1.2,7.4,6.9c0.5,4.3,2.6,4.8,4.5,4.8c0.1,0,0.2,0,0.3,0c1.7-0.1,4.1-0.7,4.4-4.9
				c0.2-3.2,1.7-6.9,7.6-6.9l0.3,0c1.6,0,3.2,0,4.8,0c1.8,0,3.6,0,5.4-0.1l0.5,0c1.9,0,7.7,0,8.2,6.6c0.4,5.1-2.3,8.1-7.5,8.5
				c-2.9,0.2-4.3,1.6-4.3,4.3c0,2.7,1.4,4.2,4.2,4.4c4.8,0.4,7.3,2.9,7.7,7.6c0.2,2.9,1.6,4.3,4.3,4.3c0.1,0,0.2,0,0.4,0
				c2.6-0.1,3.9-1.4,4-4c0.1-3-1.2-4.6-4.1-4.8c-5.2-0.4-7.8-3.3-7.4-8.4c0.4-6.3,5.8-6.3,8.3-6.3c1.8,0,3.6,0,5.4,0
				c2.1,0,4.1,0,6.2,0c3.6,0,6.5,0,9.2-0.1c5-0.1,6.4-1.4,6.4-6.4c0-2.8,0-5.6,0-8.4c-0.1-5.1-1.2-6.2-6.4-6.3c-2.5,0-5,0-7.5,0
				l-11.5,0c-6.4,0-10.1-1.2-10.2-7.4c0-1.7,0.1-3.9,1.7-5.5c1.8-1.8,4.6-2.2,8.7-2.2l4.1,0c0.8,0,1.7,0,2.5,0
				c6.7-0.1,6.7-3.4,6.7-4.7s0-4.2-6.5-4.3c-1.7,0-3.5,0-5.2,0l-4.5,0c-4.5,0-7.3-2.5-7.5-6.8c-0.4-6.7,4-8,6.7-8.2
				c3.3-0.2,4.8-1.6,5-4.8c0.2-4.2,2.6-6.7,6.8-7c3.6-0.3,5.2-1.9,5.5-5.5c0.3-4,2.7-6.5,6.6-6.7c3.5-0.2,5-1.7,5.1-5.1
				c0.2-4.2,2.9-6.7,7.2-6.7c4.2,0,8.4,0,12.6,0c4,0,7.9,0,11.9,0c4.4,0,7.1,2.4,7.3,6.5c0.2,3.5,1.7,5,5.5,5.3
				c2.4,0.2,6.5,1.4,6.2,8.1c-0.2,4.3-2.7,6.8-7,6.8c-1.4,0-2.8,0-4.2,0l-3.4,0c-1.3,0-2.7,0-4,0l-0.2,0c-4.9,0-7.7-2.6-8-7.3
				c-0.3-4.1-2.4-4.7-4.3-4.7c-2.8,0-4.3,1.5-4.6,4.6c-0.4,4.5-2.9,7.1-7.5,7.4c-3,0.2-4.6,1.9-4.6,5.1c-0.2,6.6-0.2,13.5,0,22.6
				c0,2.8,1.3,4.4,4.1,5.1c7.3,1.7,8,2.6,8,10.2c0,3.5,0,7,0,10.6c0,7,0,14.3,0,21.4c0,4.6,1.3,5.8,5.9,5.9c1.4,0,2.9,0.1,4.3,0.1
				c1.5,0,3,0,4.4-0.1c4.6-0.1,5.7-1,6.4-5.5c0.6-3.9,2.7-6,6.2-6.3c3.9-0.4,5.5-2.1,5.8-5.7c0.2-4,3-6.4,7.4-6.4l0.1,0
				c3.9,0,6.4,2.1,7.2,5.9C230.7,321.9,231.2,322.4,237,322.5z M329.7,203.6c4,0.1,6.4,2.3,6.5,6.1c0.1,4-2.1,6.4-6.1,6.6
				c-0.2,0-0.4,0-0.6,0c-3.8,0-6-2.2-6.1-5.9c-0.1-2.3,0.5-4,1.6-5.2c1.1-1.1,2.6-1.6,4.5-1.6L329.7,203.6z M286.5,173.3
				c0.2-2.5,1.5-6.8,8-6.8c0,0,0.1,0,0.1,0c1.5,0,3,0,4.5,0l7,0l5.9,0c1.9,0,3.8,0,5.6,0c4.6,0,7.3,2.5,7.7,6.7
				c0.3,4.6-2,7.5-6.6,8.2c-4.9,0.8-5.5,1.5-5.6,6.6c-0.1,3-0.1,6.1,0,9.3c0,2.8-0.6,4.8-2,6.2c-1.2,1.3-3,1.9-5.4,1.9
				c-2.3,0-4.1-0.6-5.4-1.9c-1.3-1.4-2-3.3-1.9-6c0.1-2.8,0.1-6.4,0-10.1c-0.2-4.1-1.3-5.3-5-5.8
				C287.2,180.9,286.2,176.7,286.5,173.3z M277.2,97.3c1.1-1.1,2.7-1.7,4.7-1.7l0.2,0c3.9,0.1,6.2,2.5,6.2,6.5c0,2.1-0.5,3.8-1.7,5
				c-1.1,1.1-2.7,1.7-4.6,1.7l-0.2,0c-3.9-0.1-6.1-2.4-6.2-6.5C275.5,100.2,276.1,98.5,277.2,97.3z M222,119.5l0.2,0
				c2,0,3.6,0.7,4.7,1.8c1.2,1.2,1.7,2.9,1.6,5c-0.1,3.9-2.5,6.2-6.5,6.3c0,0-0.1,0-0.1,0c-4.1,0-6.5-2.4-6.6-6.7
				C215.5,122,218,119.5,222,119.5z M192.5,139.1c0.1,1.3-0.4,2.6-1.3,3.6c-0.8,0.8-2.2,1.8-4.9,1.8l-0.2,0c-5.5,0-6.4-3.7-6.4-5.9
				c0-2.2,0.6-3.9,1.7-5.1c1.1-1.1,2.7-1.7,4.6-1.7c0,0,0,0,0,0C190.1,131.8,192.3,134.3,192.5,139.1z M181.4,97.3
				c1.1-1.1,2.7-1.7,4.7-1.7c0,0,0,0,0,0c3.9,0,6.3,2.4,6.4,6.4c0,2.2-0.5,3.9-1.7,5.1c-1.1,1.1-2.7,1.7-4.7,1.7
				c-3.9,0-6.2-2.3-6.3-6.3C179.6,100.3,180.2,98.5,181.4,97.3z M59.9,150.4c-0.1-2.2,0.5-3.9,1.6-5.1c1.1-1.2,2.7-1.8,4.7-1.8
				l0.2,0c3.8,0,6.2,2.3,6.6,6.3c0,0.1,0,0.2,0,0.3c-0.3,4.2-2.7,6.5-6.7,6.5c0,0-0.1,0-0.1,0C62.2,156.7,60,154.4,59.9,150.4z
				 M49.1,294.2c-0.5,4-2.9,6.3-6.6,6.3l-0.3,0c-4-0.1-6.3-2.6-6.3-6.9c0-4,2.4-6.2,6.4-6.3c0,0,0,0,0,0c4,0,6.4,2.3,6.7,6.6
				C49.1,294,49.1,294.1,49.1,294.2z M114.1,239.4l0.2,0c2,0,3.5,0.6,4.6,1.8c1.1,1.2,1.7,3,1.6,5.2c-0.1,3.9-2.4,6.2-6.1,6.2
				c-0.1,0-0.3,0-0.4,0c-4.1-0.2-6.3-2.7-6.2-7C108,241.6,110.3,239.4,114.1,239.4z M89.4,202.8c0.8,0,1.7-0.1,2.8-0.1
				c0.7,0,1.5,0,2.2,0c0.6,0,1.2,0,1.7,0c0.1,0,0.3,0,0.4,0l3.6,0c0.7,0,1.5,0,2.2,0c4.5,0.1,7.2,2.7,7.2,7.1c0,4.6-2.5,7.3-7,7.3
				c-2,0-4.1,0-6.1,0c-2.3,0-4.5,0-6.8,0c-4.2,0-6.7-2.6-6.7-7.1C82.9,205.7,85.3,203.1,89.4,202.8z M77.8,214.5c0.2,0,0.5,0,0.7,0
				c2.9,0,6.5,1.2,7.3,6.8c0.6,4.3,1.8,5.2,6.4,5.4c1.7,0,3.5,0,5.2,0c1.8,0,3.6,0,5.4,0.1c4.5,0.1,7,2.9,6.9,7.5
				c-0.1,4.3-2.6,6.9-6.9,6.9c-1.7,0-3.3,0-5,0c-1.2,0-2.5,0-3.7,0c-1.1,0-2.2,0-3.3,0c-0.1,0-0.3,0-0.4,0c-1.2,0-2.3,0-3.5,0
				c-1.2,0-2.4,0-3.5,0c-1.5,0-3,0-4.5,0c-5.6-0.1-7.9-2.5-8.1-8.2c-0.1-2.7-0.1-5.4,0-8c0-0.9,0-1.8,0-2.7
				C70.7,217.6,73.2,214.8,77.8,214.5z M36.9,204.7c1.2-1.2,2.8-1.9,4.9-1.9c4.1,0,8.5-0.1,13-0.1c4.1,0,8.2,0,12.3,0.1
				c4.2,0,6.5,2.7,6.5,7.3c0,4.5-2.5,7.1-6.7,7.1c-1.7,0-3.4,0-5.1,0c-1.3,0-6.3,0-7.4,0c-0.1,0-0.2,0-0.3,0l-12,0
				c-4.3,0-6.8-2.5-7-6.8C35,208,35.6,206.1,36.9,204.7z M65.4,253.5c-4.3,0-8.7,0-13,0c-3.3,0-6.7,0-10,0c-2.3,0-4.1-0.7-5.4-2
				c-1.3-1.3-2-3.2-1.9-5.6c0-4.7,2.8-7.4,7.5-7.4l4.1,0l15,0c1.4,0,2.9,0,4.4,0c4.8,0,7.4,2.6,7.4,7.4c0,2.5-0.6,4.4-1.9,5.7
				c-1.2,1.3-3,1.9-5.3,1.9L65.4,253.5z M78.3,277.4c-0.2,0-0.4,0-0.6,0c-2.7-0.1-7.1-1.4-7-8.4c0-1.1,0-2.2,0-3.3l0-1.5
				c0-6.2,0-9.3,1.9-11.4c2-2.1,5.2-2.1,11-2.1c0,0,12.4,0,14.8,0l3.4,0c2.7,0,4.6,0.7,6,2c1.3,1.3,1.9,3.2,1.8,5.5
				c-0.1,3.2-1.5,7-7.8,7l-4.4,0c-1.7,0-3.9,0-6.2,0.1c-4.6,0.1-5.3,2.8-5.5,4.8C85.4,274.8,82.8,277.4,78.3,277.4z M107.1,310.5
				c-1.1,1.2-2.8,1.7-4.9,1.7l-0.1,0l-0.1,0c-3.9,0-6.3-2.3-6.4-6.2c0-2,0.5-3.7,1.7-4.8c1.2-1.2,2.8-1.8,4.9-1.8l0.1,0
				c4,0,6.4,2.3,6.5,6.2C108.8,307.7,108.3,309.3,107.1,310.5z M133.6,282.5c-0.4,6.7-6.2,6.7-8.4,6.7h-0.2c-2.3,0-4.6,0-6.9,0
				l-10,0c-0.1,0-0.2,0-0.3,0l-17.5,0c-2.4,0-4.3-0.7-5.6-2c-1.3-1.3-1.9-3.1-1.9-5.4c0-4.6,2.7-7.2,7.4-7.2l0.2,0c1.3,0,2.6,0,4,0
				c2.1,0,4.3,0,6.6-0.1c4.6-0.1,5.4-2.6,5.6-4.7c0.2-1.8,0.7-7.4,7.4-7.4c3.1,0,6.9,1.3,7.4,7.3c0.2,3,1.7,4.5,4.7,4.7
				C131.3,274.8,133.9,277.7,133.6,282.5z M210,263.3l0.2,0c2,0,3.5,0.6,4.6,1.8c1.2,1.2,1.7,2.9,1.6,5.3c-0.1,3.9-2.4,6.2-6.3,6.2
				l-0.2,0c-2,0-3.5-0.6-4.6-1.8c-1.2-1.2-1.7-2.9-1.6-5.3C203.8,265.6,206.1,263.3,210,263.3z M185.9,251.6l0.2,0
				c0.1,0,0.2,0,0.4,0c3.8,0,6,2.2,6,6.1c0,4.1-2.1,6.5-6,6.6l-0.3,0c-2,0-3.6-0.6-4.7-1.7c-1.1-1.1-1.7-2.7-1.7-4.8
				C179.7,253.8,182,251.6,185.9,251.6z M198.7,301.3c-0.3,0-0.6,0-0.8,0c-4.3,0-7.1-2.5-7.3-6.8c-0.2-3.6-1.8-5.2-5.3-5.4
				c-2.5-0.2-6.6-1.4-6.5-7.8c0.1-4.2,2.7-6.7,7.1-6.7c0.8,0,1.6,0,2.4,0h5.3c5.3,0,8.4,0.1,10.2,2.3c1.7,2,1.7,5,1.7,11
				c0,1.9,0,3.8,0,5.8C205.5,298.3,203,301,198.7,301.3z M216.4,305.5c-0.2,5.8-4.1,6.7-6.4,6.7c0,0,0,0,0,0c-2,0-3.5-0.6-4.6-1.7
				c-1.2-1.2-1.7-2.9-1.7-5.1c0-2.2,0.9-5.9,6.4-5.9l0.2,0c2.1,0,3.6,0.6,4.7,1.8C215.7,302,216.5,303.4,216.4,305.5z M251.8,214.5
				h0.2c12.3,0,13.2,0.9,13.2,13.5c0,0.4,0,0.9,0,1.3c0,1.2,0,2.3,0.1,3.5c0.2,4,1.3,5.1,5.2,5.7c5.6,0.8,6.9,4.5,6.9,7.4
				c0.1,4.6-2.6,7.4-7.3,7.7c-3,0.2-4.5,1.6-4.8,4.5c-0.4,4.7-3,7.2-7.3,7.2c-0.4,0-0.9,0-1.4-0.1c-6-0.6-6-5.7-6-8.5l0-2.4
				c0-2.5,0-5.2-0.1-7.7c-0.1-2.8-1.3-4.3-3.7-5c-7.8-2.2-8.4-3-8.4-11.1l0-2.7C238.5,215.4,239.3,214.5,251.8,214.5z M229.3,241.1
				c1.1-1.1,2.7-1.7,4.7-1.7l0.1,0c3.9,0,6.2,2.4,6.2,6.5c0,2.2-0.5,3.9-1.7,5c-1.1,1.1-2.7,1.7-4.7,1.7l-0.1,0
				c-3.9-0.1-6.2-2.4-6.2-6.5C227.6,243.9,228.2,242.2,229.3,241.1z M240.3,268.9c0,2.8-0.5,4.6-1.8,5.9c-1.1,1.1-2.6,1.7-4.6,1.7
				c0,0,0,0,0,0c-3.9,0-6.2-2.4-6.3-6.4c0-2.2,0.5-3.9,1.7-5.1c1.1-1.1,2.7-1.7,4.7-1.7c0,0,0,0,0,0
				C237.8,263.4,240.3,265.5,240.3,268.9z M226.7,306.4c-0.2-6,3.3-7.6,6.3-7.9c3.6-0.3,5.3-2,5.5-5.5c0.3-4.2,3-6.7,7.2-6.7
				c0,0,0,0,0,0c4.6,0,7.4,2.5,7.6,6.8c0.2,3.5,1.8,5,5.6,5.4c2.4,0.2,6.4,1.5,6.2,7.5c-0.2,4.4-2.7,6.9-6.9,7c-1.7,0-3.3,0-5,0
				c-1.2,0-2.5,0-3.7,0c-1.2,0-2.3,0-3.5,0c-0.1,0-0.2,0-0.3,0l-7.2,0c-1.6,0-3.2,0-4.8,0C229.4,313,226.9,310.7,226.7,306.4z"/>
			<path class="st3" d="M389.9,346.3c4.6,0.4,7.1,2.9,7.4,7.5c0.2,3,1.6,4.4,4.5,4.4c0,0,0,0,0,0c2.7,0,4.1-1.4,4.3-4.3
				c0.3-4.6,2.7-7.1,7.2-7.6c3.3-0.3,4.6-1.9,4.6-5.5c0-3.7,0-7.4,0-11.1c0-3.5,0-7.1,0-10.7c0-4.3-0.8-5.2-4.8-5.8
				c-4.5-0.6-6.8-3.1-6.8-7.4c0-3,1.2-6.8,6.9-7.3c3.3-0.3,4.7-1.9,4.7-5.4c0-15.2,0-30.5,0-46.2c0-4.6-2.3-5.4-4.5-5.5
				c-4.5-0.3-7-2.9-7.3-7.5c-0.2-2.7-1.7-4.1-4.5-4.3c-4.8-0.3-7.5-2.9-7.5-7.4c0-2.7,0.9-7.3,7.7-7.8c2.7-0.2,4.2-1.6,4.3-4.4
				c0.3-4.5,2.8-7,7.4-7.4c2.9-0.2,4.2-1.7,4.3-4.8c0.1-3.8,0-7.6,0-11.5c0-2.9-1.2-4.3-4-4.6c-0.2,0-0.4,0-0.6,0
				c-2.3,0-3.8,1.5-4.1,4.2c-0.3,3.1-1.5,7.3-7.5,7.7c-2,0.1-4.3,0.9-4.3,5.2c0,3.6,0,7.1,0,10.7c0,4.8-2.5,7.6-7,7.9
				c-0.1,0-0.1,0-0.3,0c-4.2,0.6-4.7,2.9-4.7,4.7c0,1.9,0.6,3.9,4.8,4.7c3.3,0.6,5.9,2.5,6.9,5.1c0.9,2.3,0.4,4.9-1.3,7
				c-1.6,2-3.6,2.3-5.3,2.5c-0.4,0.1-0.7,0.1-1.1,0.2c-2.7,0.6-4,2-4,4.5c0,1.5,0.4,3.7,4,4.6c7.1,1.7,8,2.9,8,10.3
				c0,8.7,0,17.3,0,26c0,9.4,0,18.8,0,28.1c0,6.3,0.1,6.4,6,7.6c5.9,1.3,5.7,6.2,5.6,7.9c-0.2,4.1-2.7,6.5-6.7,6.6
				c-2.1,0-4.1,0.1-6.2,0.1l-6.3,0c-2.4,0-4.2-0.7-5.5-1.9c-1.3-1.3-1.9-3.1-1.9-5.5l0-1.9c0-2.9,0-5.8-0.1-8.7
				c-0.2-4.2-1.7-5.8-5.7-5.8c-9.6-0.1-19.2-0.1-28.8-0.1c-9.6,0-19.3,0-28.9,0.1c-4,0-5.5,1.6-5.7,5.9c-0.1,3.3-0.1,6.7,0,10.1
				c0.1,6.2-3.7,7.7-6.9,7.9c-3.2,0.2-4.6,1.7-4.8,5c-0.3,4.7-3.2,7.3-8.1,7.3c0,0-1.6,0-2.4,0c-1.3,0-2.7,0-4,0c-1.3,0-2.7,0-4,0
				h-0.3c-3.3,0-4.8,1.3-5,4.4c-0.3,4.5-2.8,6.9-7.5,7.3c-2.9,0.3-4.5,1.8-4.7,4.8c-0.4,4.6-3,7.1-7.5,7.4c-2.7,0.2-4,1.4-4.2,4
				c-0.4,5.1-3,7.7-7.7,7.7c-6.8,0-7.4-5.8-7.6-7.7c-0.3-2.6-1.6-3.9-4.3-3.9c-0.1,0-0.2,0-0.3,0c-2.4,0.1-3.7,1.3-4,3.7
				c-0.2,1.5,0.1,2.7,0.8,3.6c0.6,0.8,1.6,1.2,3,1.4c5.1,0.4,7.6,3.1,8,8.3c0.2,2,1.3,3.1,3.5,3.4c0.4,0.1,0.9,0.1,1.3,0.1
				c1.7,0,2.8-0.6,3.5-2c0.5-1,0.7-2.3,0.9-3.6l0-0.1c0.7-3.9,3.2-6,7.2-6c4.3,0,6.9,2.2,7.2,6.1c0.3,3.8,1.9,5.4,5.7,5.7
				c4.3,0.3,6.8,3.2,6.6,7.8c-0.1,4.2-2.5,6.7-6.8,7.1c-0.3,0-0.7,0.1-1.1,0.1c-3.8,0.8-4.2,3.1-4.1,4.8c0.1,1.6,0.6,3.8,4.5,3.9
				c1.7,0.1,3.5,0.1,5.6,0.1c1.5,0,3,0,4.5,0c5.2-0.1,6.2-1.1,6.3-6.3c0.1-5.2,0-10.4,0-15.5c0-2.1,0-4.2,0-6.3
				c0-4.6,2.4-7.3,6.8-7.5c0.3,0,0.5,0,0.8,0c4.4,0,7,2.5,7.4,6.8c0.3,3.3,1.6,4.7,4.8,4.9c4.5,0.3,7,3.2,7,8l0,1
				c0,3.4-0.1,6.9,0.1,10.3c0.2,3,1.7,4.5,4.5,4.5c2.8,0,4.2-1.3,4.5-4.2c0.3-2.4,0.3-4.9,0.2-7.4l0-1.3c0-6.2-0.2-6.5-6.3-7.9
				c-4.1-1-6.1-3.9-5.8-8.4c0.3-3.9,2.9-6.3,6.9-6.4c1.6,0,3.1,0,4.7,0l2,0c1.3,0,2.7,0,4,0c4.8-0.1,5.7-0.8,6.3-5.3
				c0.6-4,2.9-6.2,7-6.6c2-0.2,4-0.3,6.1-0.3c2.1,0,4.3,0.1,6.6,0.3c4.7,0.4,7.1,3,7,7.7c-0.1,3.9,0,7.9,0,11.8c0,1.5,0,3.1,0,4.6
				c0,0.1,0,0.3,0,0.4c0,1.8,0,3.6,0,5.4c0,4-0.1,8.2,0.1,12.3c0.1,3.8,1.4,5.1,5.2,5.2c2.2,0.1,4.1,0.1,6,0.1c2.1,0,4-0.1,5.8-0.2
				c1.6-0.1,2.9-1,3.6-2.3c0.7-1.4,0.6-3.1-0.3-4.5c-0.8-1.2-1.9-1.8-3.6-1.9c-4.8-0.2-7.2-2.8-7.5-7.8c-0.5-9-0.5-16.6,0-23.7
				c0.4-5.8,4-7.2,6.9-7.4c4.2-0.3,4.7-2.5,4.7-4.3c0-1.8-0.5-4.2-5-4.6c-4.1-0.4-6.3-2.7-6.6-7c-0.3-4.8-0.3-8.6-0.1-12.2
				c0.2-2,0.6-7.2,6.7-7.5c0.2,0,0.5,0,0.7,0c4.4,0,7,2.5,7.3,6.9C385.3,344.4,386.8,346,389.9,346.3z M282.4,385
				c-0.9,0-1.8,0-2.8,0c-0.7,0-1.5,0-2.2,0c-0.6,0-1.2,0-1.9,0c-0.1,0-0.2,0-0.3,0l-3.6,0c-0.7,0-1.5,0-2.2,0
				c-4.3-0.1-6.9-2.5-7.1-6.7c-0.2-5.9,3.3-7.5,6.4-7.8c2.2-0.2,4.5-0.4,6.8-0.4c2.4,0,4.8,0.1,7.3,0.4c2.9,0.3,6.4,1.9,6.2,7.4
				C289,382.2,286.6,384.8,282.4,385z M313.1,366.3c-0.2,4.4-2.9,6.9-7.4,6.9c0,0-0.1,0-0.1,0c-4.2,0-6.8-2.6-6.9-6.8
				c-0.1-4-0.1-8.4,0-13.3c0.1-4.2,2.7-6.6,7.2-6.6c0,0,0.1,0,0.1,0c4.6,0,7.2,2.5,7.2,7l0,6.2c0,0.8,0,1.5,0,2.3
				C313.1,363.3,313.1,364.8,313.1,366.3z M361,352.2l0,1.6c0,4.5-2.6,7.2-7.2,7.2c-1.7,0-3.4,0-5.1,0l-7.3,0c-0.1,0-0.2,0-0.3,0
				c-1.1,0-5.7,0-6.9,0c-1.6,0-3.2,0-4.8,0c-4.3-0.1-6.9-2.7-6.9-6.9l0-3.5c0-7,0-14.2,0-21.3c0-4.1,2.6-6.7,6.7-6.7
				c4.7,0,9.4,0,14.1,0l10.7,0c4.3,0,6.9,2.6,6.9,6.9C361,337.1,361,344.8,361,352.2z"/>
			<path class="st3" d="M353.1,106.1c7.7,0.6,15.6,0.9,23.4,0.9c7.7,0,15.5-0.3,23.3-0.9c11.3-0.9,16.7-6.5,17-17.8
				c0.3-15,0.3-29.9,0-44.3c-0.2-11.5-6.5-17.6-18.2-17.9c-2.4,0-5-0.1-8.2-0.1c-2.2,0-4.5,0-6.7,0c-2.3,0-4.5,0-6.8,0h-0.3
				c-2.2,0-4.5,0-6.7,0c-2.2,0-4.5,0-6.7,0c-3.2,0-5.9,0-8.4,0.1c-11.4,0.2-17.9,6.5-18.3,17.5c-0.4,15.1-0.4,30.3,0,45.1
				C336.8,99.4,342.4,105.2,353.1,106.1z M345.8,50c0.3-9.2,5.4-14.3,14.9-14.8c5.4-0.3,10.8-0.4,16.2-0.4c5.2,0,10.4,0.1,15.5,0.4
				c10.2,0.5,14.9,5.7,15.1,16.3c0,3.4,0,6.8,0,10.1c0,1.5,0,3,0,4.6c0,0.1,0,0.2,0,0.4c0,1.6,0,3.1,0,4.7c0,3.7,0.1,7.6-0.1,11.4
				c-0.3,8.8-5.5,14.2-14.1,14.4c-5.6,0.1-11.2,0.2-16.6,0.2h0c-5.5,0-11-0.1-16.3-0.2c-8.9-0.3-14.2-5.6-14.5-14.6
				C345.5,71.9,345.5,61,345.8,50z"/>
			<path class="st3" d="M88.4,336.4c-7.7-0.2-15.3-0.3-22.6-0.3c-7.5,0-15,0.1-22.1,0.3c-11.1,0.3-17.3,6.8-17.5,18.2
				c-0.1,5.1-0.1,10.2-0.1,15.2c0,2.3,0,4.6,0,6.9c0,2.4,0,4.7,0,7.1c0,4.9-0.1,10,0.1,15.1c0.3,11.1,6,17.1,17,17.8
				c2.5,0.2,5.1,0.2,8.6,0.2c1.6,0,3.2,0,4.9,0c1.2,0,2.5,0,3.7,0l2.1,0c2.1,0,4.1,0,6.2,0c2,0,4.1,0,6.1,0c4.6,0,10.1,0,15.7-0.4
				c9.5-0.6,14.9-5.9,15.6-15.3c1.2-15.7,1.3-31.9,0.1-48C105.3,342.3,99.3,336.7,88.4,336.4z M97.1,393.4
				c-0.2,8.3-5.6,13.6-14.1,13.9c-1.9,0.1-4,0.1-6.5,0.1c-1.7,0-3.5,0-5.2,0c-1.6,0-3.2,0-4.8,0c-0.1,0-0.2,0-0.4,0
				c-1.6,0-3.2,0-4.8,0c-1.6,0-3.2,0-4.8,0c-2,0-4,0-6-0.1c-9-0.2-13.5-4-14.9-12.8c-0.9-5.2-0.7-10.4-0.6-15.5
				c0.1-2.1,0.1-4.4,0.1-6.5c0-1,0-2.1-0.1-3.1c-0.1-3.7-0.2-7.6,0.6-11.5c1.8-8,6.1-11.9,13.7-12.1c5.9-0.2,11.7-0.3,17.2-0.3
				c5.6,0,11.2,0.1,16.6,0.3c8.5,0.3,13.7,5.6,14,14.1C97.4,370.6,97.4,381.8,97.1,393.4z"/>
			<path class="st3" d="M26.2,89.3c0.4,10.3,5.9,16.1,16,16.8c8.1,0.6,16.2,0.9,24.2,0.9c8.2,0,16.6-0.3,24.7-0.9
				c8.4-0.6,14.2-6.4,14.9-14.7c1.2-15.5,1.3-31.7,0.1-48c-0.8-11.7-6.5-17-18.5-17.1c-7.8-0.1-15-0.1-22-0.1
				c-7.4,0-14.6,0-21.5,0.1c-11.6,0.1-17.8,6.3-18.1,17.9c-0.1,5.1-0.1,10.2-0.1,15.2c0,2.2,0,4.4,0,6.5c0,0.1,0,0.2,0,0.4
				c0,2.4,0,4.8,0,7.1C26.1,78.6,26,84,26.2,89.3z M35.5,49.3c0.8-9.5,5.6-13.8,15.9-14.1c5.2-0.2,10.3-0.3,15.2-0.3
				c5,0,10,0.1,14.7,0.3c10.8,0.4,15.9,5.9,16,17c0.1,9.5,0.1,18.9,0,28c-0.1,11.5-5.4,16.9-16.8,17.1c-1.8,0-3.6,0-5.4,0
				c-1.5,0-3,0-4.4,0c-1.5,0-2.9,0-4.4,0c-0.1,0-0.2,0-0.3,0c-1.5,0-2.9,0-4.4,0c-1.6,0-3.1,0-4.7,0c-2.2,0-4.1,0-5.8-0.1
				c-9.6-0.2-14.5-4.5-15.5-13.4C34.4,73.1,34.4,61.8,35.5,49.3z"/>
			<path class="st3" d="M186,370.5c1.4,0,5.7,0,7.1,4.9c0.9,3.3,1.6,5.4,2.5,6.1c0.9,0.7,3,0.8,6.5,0.8c0.6,0,1.3,0,1.9,0
				c0.7,0,1.4,0,2.1,0c1.2,0,2.2,0,3.1-0.1c3.6-0.2,5.4-1.7,5.3-4.6c-0.1-1.8-0.7-4.1-5.2-4.2c-1.4,0-3-0.1-5-0.1
				c-0.9,0-5.6,0-5.6,0c-5.1,0-8-2.7-8-7.5c0-2.4,0.7-4.2,2-5.5c1.3-1.3,3.3-2,5.8-2l0.2,0c1.7,0,3.5,0,5.2,0c2,0,3.7,0,5.3-0.1
				c5.4-0.2,5.4-3.5,5.3-4.5c0-2-0.7-4.3-5.5-4.3c-3.6,0-7.2-0.1-10.8-0.1c-3.5,0-7,0-10.4,0.1c-4.5,0-5.4,0.8-6,5.1
				c-0.6,4.3-3.1,6.6-7.4,6.6c-0.2,0-0.5,0-0.7,0c-4.4-0.2-6.9-3-6.9-7.5c0-1.2,0-2.3,0-3.5c0-2.6,0-5.3-0.1-7.9
				c-0.2-4.7-3.2-4.8-4.2-4.9l-0.2,0c-3.3,0-4.2,2.6-4.3,4.8c-0.1,2-0.1,4.1-0.1,6.1c0,0.9,0,1.7,0,2.6c0,8.7-1.6,10.2-10.4,10.2
				l-1.4,0c-1.6,0-3.2,0-4.7,0c-1.6,0-3.2,0-4.7,0c-3.9,0-6.8,0-9.5,0.1c-3.2,0.1-5,1.7-5,4.5c0,2.7,1.7,4.1,5.1,4.3
				c2.1,0.1,4.2,0.2,6.4,0.3c1.9,0.1,3.7,0.1,5.6,0.2c3.9,0.2,6.3,2.4,6.4,5.8c0.2,5,0.2,10,0,14.8c-0.1,3.6-2.7,6-6.7,6.1
				c-0.1,0-0.3,0-0.4,0c-3.6,0-6.1-1.8-7-5.1c-0.2-0.6-0.2-1.2-0.3-1.7c0-0.4-0.1-0.7-0.1-1c-0.6-2.6-2.3-4.2-4.3-4.2
				c-0.2,0-0.4,0-0.6,0c-3.4,0.5-3.8,2.5-3.8,4c0,3.1,1.2,4.6,4.1,4.7c4.9,0.3,7.6,3.1,7.6,7.9c0,6.6-5.6,7.1-7.5,7.3
				c-3,0.3-4.3,1.8-4.3,4.8c0,3.2,2.7,3.9,4.9,3.9c2,0,4.2,0.1,6.9,0.1c1.7,0,3.5,0,5.2,0c1.7,0,3.5,0,5.2,0c1.5,0,3.1,0,4.6,0
				c2,0,4,0,6,0c2.2,0,4.4,0,6.7,0c4.5-0.1,5.1-2.2,5.2-4.1c0-1.1,0.1-4.5-5.2-4.7c-1.5-0.1-3.2-0.1-5.4-0.1c-1.1,0-2.1,0-3.2,0
				l-2.5,0c-4.7,0-7.5-2.7-7.6-7.3c-0.1-4.6,2.7-7.4,7.4-7.6c2.4-0.1,4.7-0.1,6.5-0.1c1,0,4.7,0,4.7,0c3.5,0,5.1-1.3,5.3-4.6
				c0.3-4.2,2.5-6.7,5.9-6.9c4.3-0.3,6.1-2.1,6.5-6.6c0.1-1.6,1-5.3,6.8-5.4L186,370.5z M162.4,372.4c0,0-0.1,0-0.1,0
				c0,0-0.1,0-0.1,0c-4.1-0.2-6.4-2.5-6.4-6.4c0-2.2,0.6-3.9,1.7-5.1c1.1-1.1,2.7-1.7,4.6-1.7c0,0,0.1,0,0.1,0c2,0,3.5,0.6,4.6,1.7
				c1.2,1.2,1.7,2.9,1.7,5.1C168.4,369.9,166.2,372.2,162.4,372.4z"/>
			<path class="st3" d="M127.2,46.7c2.8,0,5.5,0.1,8.3,0.1c1.7,0,11.2,0,11.2,0c8.2,0,9,0.7,11.1,8.6c0.8,3.2,2.8,3.5,4.1,3.5
				c0.2,0,0.4,0,0.6,0c2.5-0.2,3.8-1.6,3.9-4.2c0.1-2.7-1.1-4.1-3.5-4.4c-2.2-0.3-8.1-0.9-8-7.8c0-6.7,5.6-7.3,7.7-7.5
				c2.7-0.3,3.9-1.8,3.8-4.6c-0.1-2.7-1.4-4-4.4-4c-1.5,0-3.1,0-4.6,0c-1.2,0-2.4,0-3.6,0c-1.2,0-2.4,0-3.7,0c-0.1,0-0.2,0-0.3,0
				l-10.3,0l-0.4,0c-0.2,0-0.3,0-0.5,0c0,0,0,0,0,0c-3.1,0-4.5,1.3-4.8,4.2c-0.4,4.5-2.7,7-7.2,7.5c-3.3,0.4-4.9,2-4.8,4.8
				C121.9,44.4,122.5,46.6,127.2,46.7z"/>
			<path class="st3" d="M257.6,46.7c6.3,0.5,7.6,4.5,7.6,7.8c0,3.2-1.4,7-7.4,7.4c-1.8,0.1-3,0.8-3.7,2.2c-0.9,1.8-0.7,3.5,0.4,5.1
				c0.8,1,1.8,1.5,3.1,1.5c0.5,0,1-0.1,1.6-0.2c1.8-0.4,2.8-1.6,3-3.6c0.1-1.9,0.6-7.5,7.3-8c4.7-0.3,4.7-3.4,4.7-4.4
				c0-2.4-0.8-4.1-5-4.6c-2.9-0.3-5.2-2-6.4-4.4c-1.1-2.4-0.9-5.2,0.6-7.5c1.6-2.4,4-2.8,5.7-3c0.3-0.1,0.7-0.1,1-0.2
				c3.8-0.8,4.1-3.1,4-4.7c-0.1-1.8-0.7-3.9-4.5-4c-0.7,0-1.4,0-2.1,0c-0.6,0-3,0-3.6,0c-0.1,0-0.3,0-0.4,0l-2.2,0
				c-0.5,0-0.9,0-1.4,0c-5.7,0.1-6.6,0.9-6.6,6.8l0,1.1c0,2.6-0.1,5.4,0.1,8C253.7,45.9,255.8,46.5,257.6,46.7z"/>
			<path class="st3" d="M413.1,393.9c4.1-0.6,4.8-2.1,4.7-4.7c-0.1-2.4-1.3-3.7-3.8-4c-0.2,0-0.4,0-0.6,0c-2.3,0-3.9,1.7-4.3,4.5
				c-0.6,5-3.2,7.5-7.7,7.5l-0.2,0c-2.5,0-6.9-1.1-7.3-7.6c-0.1-1.9-0.7-3-1.8-3.7c-0.8-0.5-1.7-0.8-2.5-0.8c-0.8,0-1.7,0.3-2.5,0.8
				c-1.6,1.1-2.1,2.5-1.8,4.5c0.4,2,1.3,2.9,3.3,3.4c7.6,1.6,8.5,2.7,8.5,10.3c0,0.8,0,3.6,0,3.6c0,5,0.1,8,1.1,9
				c1,1,4.2,1.1,9.2,1.1l0.6,0l2.3,0c0.6,0,1.2,0,1.9,0c4.8-0.1,5.3-1.9,5.4-4c0.2-2.5-0.5-4.3-4.6-4.8c-1.7-0.2-7-0.9-7-7.2
				C406.2,397.3,408.6,394.6,413.1,393.9z"/>
			<path class="st3" d="M386.2,147.1c-0.7,0.8-1.1,1.9-1,3.1c0.1,2.7,2,4.3,5.3,4.5c1.2,0.1,2.6,0.1,4.2,0.1c1.1,0,2.3,0,3.4,0
				c1.1,0,2.3,0,3.4,0c1.2,0,2.4,0,3.6,0c1.2,0,2.4,0,3.5,0c1.7,0,3.1,0,4.4-0.1c4.4-0.2,4.9-2.7,4.9-4.5c0-3-1.4-4.4-4.4-4.5
				c-4-0.1-7.9-0.2-11.7-0.2c-4,0-7.9,0.1-11.6,0.2C388.4,145.7,387.1,146.2,386.2,147.1z"/>
			<path class="st3" d="M209.6,397.3c-0.7,0-1.4,0-2,0c-0.6,0-1.2,0-1.8,0c-0.6,0-1.2,0-1.8,0c-0.1,0-0.2,0-0.3,0h-1.9
				c-3.1,0-5.4,0-6.2,0.6c-0.8,0.6-1.4,2.7-2.3,6c-1.2,4.6-5.2,5-7.1,5.2c-4,0.4-4.4,2.8-4.4,4.6c0.1,2.6,1.3,3.9,3.9,4.1
				c0.2,0,0.4,0,0.6,0c1.9,0,3.7-0.6,4.2-4.6c0.6-4.7,3.3-7.1,8-7.1l0.9,0c1.6,0,3.2,0,4.7,0c2.1,0,3.9,0,5.6-0.1
				c1.8-0.1,4.9-0.8,4.8-4.6C214.3,400.5,214.2,397.6,209.6,397.3z"/>
			<path class="st3" d="M341.8,397.4l-0.2,0c-2.7,0.1-4,1.3-4.3,3.8c-0.2,1.4-0.1,2.8-0.1,4.3c0,0.7,0,1.4,0,2.1c0,0.7,0,1.5,0,2.2
				c0,1.5-0.1,2.9,0.1,4.2c0.3,2.5,1.7,3.7,4.4,3.8l0.2,0c2.4,0,3.7-1,4.1-3.3c0.9-4.7,0.8-9.3,0-13.8
				C345.5,398.5,344.2,397.4,341.8,397.4z"/>
			<path class="st3" d="M233.9,346.1L233.9,346.1c2.6,0,4.4-1.8,4.4-4.4c0-1.3-0.4-2.4-1.2-3.2c-0.8-0.8-1.9-1.2-3.2-1.2
				c-1.2,0-2.3,0.4-3.1,1.2c-0.8,0.8-1.2,1.9-1.2,3.1C229.7,344.3,231.3,346.1,233.9,346.1z"/>
			<path class="st3" d="M401.6,130.7c2.5-0.1,4.5-2.2,4.4-4.6c0-2.4-2.1-4.3-4.5-4.3l-0.1,0c-2.4,0.1-4.1,1.9-4,4.3
				c0.1,2.8,1.7,4.6,4.1,4.6L401.6,130.7z"/>
			<path class="st3" d="M234,409.1c-2.4,0-4.3,1.8-4.3,4.1c-0.1,2.8,1.5,4.5,4.2,4.6l0.2,0c2.6,0,4.3-1.6,4.4-4.2
				c0-1.3-0.4-2.4-1.2-3.2C236.3,409.6,235.2,409.1,234,409.1z"/>
			<path class="st3" d="M234,181.7c-1.2,0-2.4,0.4-3.2,1.3c-0.7,0.7-1.1,1.7-1.1,2.8c0,2.9,1.6,4.6,4.2,4.7l0.2,0
				c2.5,0,4.3-1.8,4.4-4.3c0-1.2-0.4-2.4-1.2-3.2C236.3,182.1,235.2,181.7,234,181.7z"/>
			<path class="st3" d="M210,181.7c-1.2,0-2.4,0.5-3.2,1.3c-0.7,0.7-1.1,1.7-1.1,2.8c0,2.9,1.6,4.6,4.2,4.7l0.1,0
				c2.5,0,4.3-1.8,4.4-4.3c0-1.2-0.4-2.4-1.2-3.2C212.4,182.1,211.2,181.7,210,181.7C210,181.7,210,181.7,210,181.7z"/>
			<path class="st3" d="M341.9,337.3l-0.1,0c-1.2,0-2.4,0.5-3.2,1.4c-0.8,0.8-1.2,1.8-1.2,2.9c0.1,2.9,1.6,4.6,4.2,4.6l0.1,0
				c2.7,0,4.4-1.8,4.4-4.5C346.1,339.1,344.3,337.3,341.9,337.3z"/>
			<path class="st3" d="M367.1,82.7c3.2,0.1,6.4,0.2,9.6,0.2c3.3,0,6.8-0.1,10.2-0.2c3.8-0.2,5.9-2.5,6.1-6.5
				c0.1-2.2,0.1-4.4,0.1-6.6c0-1,0-2,0-3c0-0.1,0-0.2,0-0.3c0-0.9,0-1.9,0-2.8c0-2.2,0-4.4,0-6.6c-0.2-4.8-2.1-6.7-6.9-6.8
				c-3-0.1-6.1-0.1-9.2-0.1c-3,0-6.1,0-9.3,0.1c-5.3,0.1-7.2,2-7.3,7.4c-0.1,5.8-0.1,11.9,0,18.1C360.4,80.2,362.6,82.5,367.1,82.7z
				"/>
			<path class="st3" d="M76.7,360.3c-3.5-0.1-7-0.2-10.4-0.2c-3.5,0-7,0.1-10.3,0.2c-3.9,0.2-5.8,2.1-5.9,6
				c-0.2,7.1-0.2,14.1,0,20.7c0.1,3.7,2.1,5.6,6,5.9c1.1,0.1,2.3,0.1,3.8,0.1c1,0,2.1,0,3.1,0c1.1,0,2.1,0,3.2,0c0.1,0,0.2,0,0.3,0
				c0.9,0,1.8,0,2.7,0c1,0,2,0,3,0c1.4,0,2.6,0,3.6-0.1c2.4-0.1,6.6-1,6.8-6.2c0.3-6.6,0.3-13.2,0-19.8
				C82.6,362.9,80.3,360.5,76.7,360.3z"/>
			<path class="st3" d="M56.5,82.8c3.2,0.1,6.5,0.2,9.7,0.2c3.2,0,6.5-0.1,9.6-0.2c4.3-0.2,6.7-2.6,6.9-6.8c0.3-6.7,0.3-13.3,0-19.8
				c-0.2-3.7-2.5-5.9-6.4-6.1c-1.1,0-2.3-0.1-3.8-0.1c-1,0-2.1,0-3.1,0c-1.1,0-2.1,0-3.2,0c0,0,0,0,0,0c-0.9,0-1.8,0-2.8,0
				c-1.1,0-2.2,0-3.4,0c-1.2,0-2.4,0-3.5,0.1c-4.5,0.2-6.3,2-6.4,6.3C50,63,50,69.6,50.1,76.2C50.2,80.3,52.5,82.6,56.5,82.8z"/>
		</g>
	</g>
	<path class="st3" d="M256.4,283.7c-5.6,0.4-12,0.3-18.6,0.2c-8.1-0.2-16.3,0-24.3-1.6c-5.2-1.1-10.3-0.4-15.4-0.4
		c-4.8,0.1-9.5,0.7-14.3,1.2c-4.3,0.4-8.6,1.2-13,0.4c-5.2-1-9-4-11.3-8.7c-3.5-6.9-3.1-13.8,1.5-20.1c2.3-3.1,5.8-4.8,9.3-6.2
		c0.9-0.4,1.8-0.7,2.8-1.1c0.6-0.2,0.7-0.6,0.4-1.1c-3.6-7.8-2.6-15,2.8-21.6c1.5-1.8,3.5-2.8,5.6-3.7c1.3-0.6,2.6-1.3,3.9-1.9
		c0.7-0.3,0.9-0.8,0.6-1.6c-2.5-8.6-0.8-16.2,5.5-22.6c2.2-2.2,5-3.4,8.1-4.1c0.5-0.1,0.9-0.2,1.3-0.3c1.5-0.5,1.6-0.9,1-2.4
		c-0.9-2.3-0.6-4.6,0-7c0.8-3,2.2-5.7,3.8-8.3c2.2-3.5,2.6-7.1,0.6-10.9c-0.7-1.4-0.3-2,1.3-1.8c2,0.2,3.8,0.9,5.6,1.6
		c6.5,2.6,12.2,6.3,17.5,10.9c3.6,3.1,6.8,6.4,8.9,10.7c2.1,4.2,2.8,8.5,2,13.1c-0.2,1.4-0.2,1.4,1.2,1.4c6.2,0.2,11.8,4.1,14,9.8
		c1,2.6,0.9,5.3,0.3,8c-0.7,3.2-0.7,3.1,2.3,4.3c4.2,1.7,7.9,3.9,10.1,8c2,3.8,2.2,7.9,1.6,12.1c-0.3,2.1-0.9,4.2-1.8,6.1
		c-0.4,0.9-0.2,1.3,0.8,1.5c3.4,0.6,6.5,1.8,9.3,3.9c4.6,3.5,8.7,11.9,6.1,19.4c-1.2,3.3-3.6,5.7-6.5,7.5c-4.4,2.8-9.2,4.4-14.4,4.8
		C262.5,283.5,259.9,283.8,256.4,283.7L256.4,283.7z M198.5,254.5c-0.9,0.5-1.1,1.2-0.7,2.1c0.5,0.9,1.1,1.8,1.9,2.6
		c6.4,5.9,13.9,9,22.6,9.1c1.4,0,2.7-0.1,4.1-0.3c5.5-0.7,10.3-3.1,14.7-6.3c1.8-1.3,3.5-2.7,4.8-4.6c0.7-1,0.5-1.9-0.5-2.6"/>
</g>
</svg>
