<?xml version="1.0" encoding="utf-8"?>
<!-- Generator: $$$/GeneralStr/196=Adobe Illustrator 27.6.0, SVG Export Plug-In . SVG Version: 6.00 Build 0)  -->
<svg version="1.1" id="图层_1" xmlns="http://www.w3.org/2000/svg" xmlns:xlink="http://www.w3.org/1999/xlink" x="0px" y="0px"
	 viewBox="0 0 720 250" style="enable-background:new 0 0 720 250;" xml:space="preserve">
<style type="text/css">
	.st0{enable-background:new    ;}
	.st1{fill:#FFFFFF;}
</style>
<g class="st0">
	<path class="st1" d="M87.2,120.4c-1.1,4-2,7.7-2.7,11.1c-0.7,3.4-1,6.4-1,8.9c0,2.2,0.5,3.9,1.4,5.2c0.9,1.2,2.4,1.9,4.6,1.9
		c0.8,0,1.8-0.2,2.9-0.7c1.1-0.5,2.4-1.2,3.9-2.2c1.5-1,3.1-2.3,4.9-3.9c1.8-1.6,3.8-3.5,6-5.7c0.1,0.2,0.3,0.6,0.6,1.4
		c0.3,0.6,0.6,1.5,1.1,2.8c0.5,1.2,1.1,2.9,2,5.1c-2.4,2.6-4.9,4.8-7.3,6.7c-2.4,1.9-4.8,3.6-7.1,4.9c-2.3,1.3-4.5,2.3-6.6,3
		c-2.1,0.7-4.1,1-5.8,1c-2,0-3.9-0.4-5.7-1.1c-1.7-0.8-3.3-1.9-4.5-3.3s-2.3-3.2-3-5.4c-0.7-2.1-1.1-4.5-1.1-7.2
		c0-0.9,0.1-2.1,0.3-3.5c0.2-1.4,0.5-3,0.8-4.8c0.4-1.8,0.8-3.8,1.4-5.9c0.5-2.1,1.1-4.4,1.8-6.8c-4.3,0.5-8.5,0.9-12.5,1.3
		c-4,0.4-7.9,0.8-11.9,1.1c-0.9,2.7-1.8,5.4-2.7,8c-0.9,2.6-1.7,5-2.6,7.3c-0.8,2.3-1.6,4.4-2.3,6.3c-0.7,1.9-1.3,3.5-1.8,4.8
		c-1.6,3.4-3.1,5.9-4.6,7.3s-2.9,2.1-4,2.1c-0.8,0-1.5-0.1-2.3-0.4c-0.7-0.3-1.4-0.6-2-1.1c-0.6-0.5-1-1.1-1.4-1.7s-0.5-1.4-0.5-2.3
		c0-0.5,0.1-1,0.2-1.5c1.4-4.9,2.8-9.7,4.4-14.3c1.6-4.6,3.2-9.1,4.9-13.5c-1.8,0-3.5-0.1-5.1-0.4c-1.6-0.3-3.1-0.8-4.5-1.4
		c-1.4-0.7-2.6-1.6-3.7-2.8c-1.1-1.2-2-2.7-2.7-4.6c-0.1-0.6-0.2-1.1-0.3-1.6c-0.1-0.5-0.1-0.9-0.1-1.4c0-1.4,0.5-2.1,1.5-2.1
		c0.6,0,1.3,0.3,2,1c0.7,0.7,1.7,1.7,2.9,3.2c1.5-0.1,3-0.1,4.6-0.1c1.5,0,3.2,0,4.9,0h4.7c1.2-3,2.3-5.9,3.3-8.7
		c1-2.8,2-5.5,2.9-8.2c0.5-1.7,1-3.4,1.3-5.1c0.3-1.7,0.5-3.3,0.5-4.9c0-1.3-0.1-2.4-0.3-3.5s-0.6-2-1.1-2.7c-0.5-0.7-1.2-1.3-2-1.7
		c-0.8-0.4-1.8-0.6-3-0.6c-1,0-2.1,0.2-3.4,0.5c-1.3,0.3-2.7,0.8-4.2,1.6c-1.6,0.7-3.2,1.7-5.1,2.9c-1.8,1.2-3.8,2.6-5.9,4.4
		c-0.7,0.6-1.4,1.1-2.1,1.3c-0.6,0.3-1.2,0.4-1.7,0.4c-0.3,0-0.5-0.4-0.6-1.3c-0.1-0.9-0.2-1.9-0.2-3.2c0-1.7,0.4-3.3,1.2-4.8
		s1.9-2.9,3.2-4.2c1.3-1.3,2.9-2.4,4.6-3.5c1.7-1,3.5-1.9,5.3-2.7c1.8-0.7,3.6-1.3,5.5-1.7c1.8-0.4,3.5-0.6,5-0.6
		c2.3,0,4.4,0.3,6.5,0.9c2.1,0.6,3.9,1.6,5.5,3c1.6,1.4,2.8,3.1,3.7,5.3c0.9,2.2,1.4,4.8,1.4,7.9c0,1.5-0.2,3.2-0.5,5.3
		c-0.3,2.1-0.8,4.4-1.4,6.9c-0.6,2.5-1.3,5.2-2.1,8c-0.8,2.8-1.6,5.7-2.5,8.7c3.3-0.2,7.1-0.5,11.2-0.7c4.2-0.2,8.4-0.5,12.6-0.7
		c1.6-5.4,3.5-11,5.5-16.8s4.1-11.4,6.3-17c0.7-1.8,1.7-3.3,2.9-4.4s2.6-1.6,4.3-1.6c0.7,0,1.3,0.1,2,0.3c0.6,0.2,1.2,0.5,1.7,0.9
		c0.5,0.4,0.9,0.9,1.1,1.6c0.3,0.6,0.4,1.4,0.4,2.2c0,0.7,0,1.6-0.1,2.6c-0.1,1-0.4,2-0.8,3.2c-0.7,2-1.5,4.1-2.4,6.4
		c-0.8,2.3-1.7,4.6-2.5,7c-0.9,2.4-1.7,4.9-2.6,7.4c-0.9,2.5-1.7,5-2.4,7.5c2-0.1,3.8-0.2,5.3-0.4c1.5-0.1,2.7-0.2,3.4-0.3
		c0.4,0,0.7-0.1,1-0.1c0.3,0,0.6,0,0.8,0c1,0,1.8,0.1,2.4,0.3c0.6,0.2,1.1,0.5,1.4,0.8c0.3,0.4,0.6,0.8,0.7,1.3
		c0.1,0.5,0.2,1,0.2,1.6c0,0.7-0.1,1.2-0.4,1.7c-0.3,0.5-0.7,0.8-1.1,1.1c-0.4,0.3-0.9,0.5-1.4,0.6c-0.5,0.1-0.9,0.2-1.4,0.2
		c-0.9,0.1-1.6,0.2-1.9,0.2c-0.4,0-0.7,0.1-0.8,0.1c-0.2,0-0.3,0-0.3,0c0,0-0.2,0-0.4,0c-0.2,0-0.5,0-1,0.1s-1.2,0.1-2.2,0.2
		c-1.2,0.1-2.3,0.2-3.4,0.3S88.3,120.3,87.2,120.4z"/>
	<path class="st1" d="M159.3,144.9c-0.7,1-1.7,2.2-3,3.6c-1.2,1.4-2.6,2.7-4.2,4s-3.2,2.3-5,3.2c-1.8,0.9-3.6,1.3-5.3,1.3
		c-2.1,0-3.9-0.7-5.3-2.1c-1.4-1.4-2.7-3.4-3.7-6c-0.8,0.9-1.7,1.8-2.9,2.8c-1.1,0.9-2.4,1.8-3.7,2.5c-1.3,0.8-2.7,1.4-4.2,1.9
		c-1.5,0.5-2.9,0.7-4.4,0.7c-1.6,0-3.1-0.3-4.5-0.9c-1.5-0.6-2.8-1.5-3.9-2.7c-1.1-1.2-2-2.6-2.7-4.3c-0.7-1.7-1-3.6-1-5.7
		c0-2.4,0.3-4.9,1-7.5c0.7-2.6,1.6-5,2.8-7.5c1.2-2.4,2.6-4.7,4.2-6.9c1.6-2.2,3.4-4.1,5.4-5.7c1.9-1.6,4-2.9,6.1-3.9
		c2.1-1,4.3-1.4,6.6-1.4c0.7,0,1.3,0.1,1.7,0.4c0.4,0.3,0.8,0.6,1,1c0.3,0.4,0.5,0.7,0.8,1.1c0.3,0.4,0.6,0.6,1,0.8
		c0.4,0.2,0.8,0.3,1.2,0.3c0.4,0,0.8,0.1,1.2,0.1c0.4,0,0.7,0,1.1,0c0.4,0,0.7,0,1.1,0c0.5,0,0.9,0,1.4,0.1c0.4,0.1,0.8,0.3,1.1,0.6
		c0.3,0.3,0.6,0.8,0.8,1.4c0.2,0.6,0.3,1.4,0.3,2.4c0,1.6-0.2,3.3-0.5,5.2c-0.3,1.9-0.7,3.8-1.1,5.8c-0.4,2-0.7,4-1.1,6
		c-0.3,2-0.5,3.9-0.5,5.6c0,1.5,0.1,2.7,0.4,3.6c0.3,0.9,0.9,1.3,1.8,1.3c0.7,0,1.4-0.2,2.1-0.5c0.7-0.3,1.5-0.8,2.3-1.3
		c0.8-0.5,1.5-1.2,2.3-1.9c0.8-0.7,1.5-1.4,2.2-2.2c1.6-1.7,3.2-3.7,4.8-5.9L159.3,144.9z M117.9,141.1c0,0.8,0.1,1.6,0.2,2.4
		c0.1,0.8,0.3,1.4,0.6,2c0.3,0.6,0.7,1.1,1.2,1.5c0.5,0.4,1.1,0.6,1.8,0.6c1.2,0,2.3-0.5,3.2-1.6c1-1,1.8-2.3,2.5-3.7
		c0.7-1.5,1.3-3,1.7-4.5c0.4-1.6,0.7-2.8,0.8-3.9l3-14.3c-1.3,0-2.6,0.3-3.9,1c-1.3,0.7-2.4,1.6-3.6,2.7c-1.1,1.1-2.1,2.4-3.1,3.9
		c-0.9,1.5-1.7,3-2.4,4.6c-0.7,1.6-1.2,3.2-1.6,4.8C118,138.1,117.9,139.6,117.9,141.1z"/>
	<path class="st1" d="M173.3,148.1c3.3,0,6.2-0.3,8.9-1c2.7-0.6,5.1-1.5,7.3-2.6c2.2-1.1,4.2-2.4,5.9-3.9c1.8-1.5,3.4-3,4.8-4.7
		l0.5,11.1c-1,1.3-2.3,2.5-3.8,3.7c-1.5,1.2-3.1,2.2-4.8,3.1c-1.7,0.9-3.6,1.6-5.5,2.1c-1.9,0.5-3.8,0.8-5.7,0.8
		c-0.2,0-0.5,0-0.8-0.1s-0.9-0.2-1.8-0.3c-0.8-0.2-2-0.4-3.6-0.7c-1.6-0.3-3.7-0.6-6.4-1v0.9c0,5.9-0.5,11.2-1.5,16
		c-1,4.8-2.3,8.9-4,12.3c-1.6,3.4-3.5,6-5.7,7.9c-2.1,1.8-4.3,2.8-6.6,2.8c-1.8,0-3.4-0.5-4.6-1.4c-1.2-0.9-2.2-2.1-2.9-3.7
		c-0.7-1.5-1.2-3.3-1.6-5.4c-0.3-2.1-0.5-4.2-0.5-6.5c0-1.3,0.2-2.8,0.6-4.5c0.4-1.7,1-3.4,1.7-5.2c0.7-1.8,1.5-3.7,2.4-5.6
		c0.9-1.9,1.8-3.7,2.7-5.5c2.2-4.1,4.7-8.4,7.5-12.8c0.4-2.5,0.7-5.1,1.1-7.8c0.4-2.6,0.8-5.2,1.4-7.7c0.6-2.5,1.3-4.8,2.1-7.1
		c0.9-2.2,2-4.2,3.3-5.8c1.3-1.6,2.9-3,4.8-3.9c1.9-1,4.1-1.5,6.8-1.5c2,0,3.8,0.3,5.5,0.8c1.7,0.5,3.2,1.4,4.5,2.6
		c1.3,1.2,2.3,2.7,3.1,4.6c0.7,1.9,1.1,4.2,1.1,7c0,2.2-0.3,4.3-1,6.4c-0.6,2.1-1.7,4-3,5.9c-1.4,1.9-3.1,3.6-5.2,5.3
		c-2.1,1.6-4.6,3.1-7.5,4.4L173.3,148.1z M150.3,178.1c0,0.3,0.1,0.7,0.2,1.3c0.1,0.6,0.3,1.2,0.6,1.7c0.3,0.6,0.6,1.1,1,1.6
		c0.4,0.5,0.9,0.7,1.6,0.7c0.5,0,1-0.3,1.4-0.9c0.4-0.6,0.6-1.4,0.9-2.4c0.2-1,0.4-2.1,0.5-3.4s0.2-2.6,0.2-3.9
		c0.1-1.3,0.1-2.6,0.1-3.9c0-1.3,0.1-2.4,0.1-3.4c0.1-1.7,0.2-3.2,0.2-4.4c0-1.2,0.1-2.2,0.1-3c0-0.9,0.1-1.7,0.1-2.3
		c-0.6,1.1-1.2,2.3-1.8,3.7c-0.6,1.4-1.1,2.9-1.6,4.4c-0.5,1.5-1,3-1.4,4.6c-0.4,1.5-0.8,2.9-1.1,4.2c-0.3,1.3-0.5,2.4-0.7,3.4
		C150.4,177,150.3,177.7,150.3,178.1z M167.2,143.2c1.9-1,3.6-2.1,5-3.2c1.4-1.2,2.6-2.5,3.6-3.8c1-1.4,1.8-2.8,2.5-4.2
		c0.6-1.5,1.2-2.9,1.6-4.5c0.2-0.7,0.3-1.5,0.3-2.5c0-1,0-1.9-0.3-2.7c-0.2-0.8-0.7-1.6-1.3-2.2c-0.6-0.6-1.4-0.9-2.5-0.9
		c-1.2,0-2.2,0.3-3.2,1c-0.9,0.7-1.7,1.6-2.4,2.7c-0.7,1.1-1.2,2.5-1.6,4c-0.4,1.6-0.8,3.2-1.1,5c-0.3,1.8-0.5,3.6-0.6,5.6
		C167.3,139.4,167.2,141.3,167.2,143.2z"/>
	<path class="st1" d="M214.7,148.1c3.3,0,6.2-0.3,8.9-1c2.7-0.6,5.1-1.5,7.3-2.6c2.2-1.1,4.2-2.4,5.9-3.9c1.8-1.5,3.4-3,4.8-4.7
		l0.5,11.1c-1,1.3-2.3,2.5-3.8,3.7c-1.5,1.2-3.1,2.2-4.8,3.1c-1.7,0.9-3.6,1.6-5.5,2.1c-1.9,0.5-3.8,0.8-5.7,0.8
		c-0.2,0-0.5,0-0.8-0.1s-0.9-0.2-1.8-0.3c-0.8-0.2-2-0.4-3.6-0.7c-1.6-0.3-3.7-0.6-6.4-1v0.9c0,5.9-0.5,11.2-1.5,16
		c-1,4.8-2.3,8.9-4,12.3c-1.6,3.4-3.5,6-5.7,7.9c-2.1,1.8-4.3,2.8-6.6,2.8c-1.8,0-3.4-0.5-4.6-1.4c-1.2-0.9-2.2-2.1-2.9-3.7
		c-0.7-1.5-1.2-3.3-1.6-5.4c-0.3-2.1-0.5-4.2-0.5-6.5c0-1.3,0.2-2.8,0.6-4.5c0.4-1.7,1-3.4,1.7-5.2c0.7-1.8,1.5-3.7,2.4-5.6
		c0.9-1.9,1.8-3.7,2.7-5.5c2.2-4.1,4.7-8.4,7.5-12.8c0.4-2.5,0.7-5.1,1.1-7.8c0.4-2.6,0.8-5.2,1.4-7.7c0.6-2.5,1.3-4.8,2.1-7.1
		c0.9-2.2,2-4.2,3.3-5.8c1.3-1.6,2.9-3,4.8-3.9c1.9-1,4.1-1.5,6.8-1.5c2,0,3.8,0.3,5.5,0.8c1.7,0.5,3.2,1.4,4.5,2.6
		c1.3,1.2,2.3,2.7,3.1,4.6c0.7,1.9,1.1,4.2,1.1,7c0,2.2-0.3,4.3-1,6.4c-0.6,2.1-1.7,4-3,5.9c-1.4,1.9-3.1,3.6-5.2,5.3
		c-2.1,1.6-4.6,3.1-7.5,4.4L214.7,148.1z M191.7,178.1c0,0.3,0.1,0.7,0.2,1.3c0.1,0.6,0.3,1.2,0.6,1.7c0.3,0.6,0.6,1.1,1,1.6
		c0.4,0.5,0.9,0.7,1.6,0.7c0.5,0,1-0.3,1.4-0.9c0.4-0.6,0.6-1.4,0.9-2.4c0.2-1,0.4-2.1,0.5-3.4s0.2-2.6,0.2-3.9
		c0.1-1.3,0.1-2.6,0.1-3.9c0-1.3,0.1-2.4,0.1-3.4c0.1-1.7,0.2-3.2,0.2-4.4c0-1.2,0.1-2.2,0.1-3c0-0.9,0.1-1.7,0.1-2.3
		c-0.6,1.1-1.2,2.3-1.8,3.7c-0.6,1.4-1.1,2.9-1.6,4.4c-0.5,1.5-1,3-1.4,4.6c-0.4,1.5-0.8,2.9-1.1,4.2c-0.3,1.3-0.5,2.4-0.7,3.4
		C191.8,177,191.7,177.7,191.7,178.1z M208.6,143.2c1.9-1,3.6-2.1,5-3.2c1.4-1.2,2.6-2.5,3.6-3.8c1-1.4,1.8-2.8,2.5-4.2
		c0.6-1.5,1.2-2.9,1.6-4.5c0.2-0.7,0.3-1.5,0.3-2.5c0-1,0-1.9-0.3-2.7c-0.2-0.8-0.7-1.6-1.3-2.2c-0.6-0.6-1.4-0.9-2.5-0.9
		c-1.2,0-2.2,0.3-3.2,1c-0.9,0.7-1.7,1.6-2.4,2.7c-0.7,1.1-1.2,2.5-1.6,4c-0.4,1.6-0.8,3.2-1.1,5c-0.3,1.8-0.5,3.6-0.6,5.6
		C208.7,139.4,208.6,141.3,208.6,143.2z"/>
	<path class="st1" d="M261.2,119.5c0.3-1.1,0.7-2.1,1.4-2.9c0.7-0.9,1.4-1.6,2.3-2.2c0.9-0.6,1.8-1,2.7-1.3c0.9-0.3,1.8-0.4,2.7-0.4
		c1,0,1.8,0.2,2.5,0.7c0.7,0.4,1,1.1,1,2.1c0,0.3,0,0.6-0.1,1c-0.2,0.8-0.4,2-0.7,3.4s-0.6,3.1-0.9,4.9c-0.3,1.8-0.7,3.8-1,5.8
		c-0.4,2.1-0.7,4.1-1,6.1c-0.8,4.8-1.6,9.9-2.5,15.4c1-0.5,2-1.2,3.2-2c1.1-0.8,2.4-1.9,3.8-3.2c1.4-1.4,2.9-3.1,4.7-5.1
		c1.7-2.1,3.6-4.6,5.8-7.7l2.3,10.8c-0.6,1-1.3,2-2.3,3.1c-0.9,1.1-1.9,2.1-3.1,3.2c-1.1,1.1-2.3,2.1-3.5,3.1
		c-1.2,1-2.4,1.9-3.6,2.8c-2.7,2.1-5.7,4.1-8.9,6c-0.6,3.5-1.3,6.8-2.2,10.1c-0.8,3.3-1.8,6.4-3,9.2c-1.1,2.9-2.5,5.5-3.9,7.9
		c-1.5,2.4-3.1,4.4-5,6.2c-1.9,1.7-3.9,3-6.2,4c-2.3,1-4.8,1.4-7.6,1.4c-1.1,0-2.3-0.1-3.6-0.3c-1.3-0.2-2.5-0.7-3.5-1.4
		s-2-1.6-2.7-2.9c-0.7-1.3-1.1-2.9-1.1-5c0-1.5,0.4-3.1,1.1-4.9c0.7-1.8,1.8-3.7,3.1-5.8c1.3-2,2.8-4.1,4.6-6.3
		c1.8-2.2,3.7-4.4,5.8-6.5c2.1-2.2,4.3-4.3,6.5-6.4c2.3-2.1,4.6-4.1,6.9-6l1.3-4.5c-1.7,1.6-3.6,2.8-5.5,3.8s-3.7,1.4-5.5,1.4
		c-1.6,0-3.1-0.3-4.5-0.9c-1.5-0.6-2.8-1.5-3.9-2.7c-1.1-1.2-2-2.6-2.7-4.3c-0.7-1.7-1-3.6-1-5.7c0-2.8,0.1-5.4,0.4-7.8
		c0.3-2.4,0.7-4.6,1.2-6.7c0.5-2.1,1.2-4.2,1.9-6.2c0.8-2,1.7-4,2.7-6c0.7-1.5,1.8-2.6,3.2-3.3c1.4-0.8,2.7-1.1,4.1-1.1
		c1.1,0,2.1,0.3,2.9,0.8c0.8,0.6,1.2,1.4,1.2,2.6c0,0.4,0,0.7-0.1,1.2c-0.1,0.4-0.2,0.9-0.4,1.4c-0.6,1.5-1.2,3.2-1.7,5.3
		c-0.6,2-1.1,4.1-1.5,6.2c-0.4,2.1-0.8,4.2-1,6.2c-0.3,2-0.4,3.8-0.4,5.4c0,0.8,0.1,1.6,0.2,2.4c0.1,0.8,0.3,1.4,0.6,2
		c0.3,0.6,0.7,1.1,1.2,1.5c0.5,0.4,1.1,0.6,1.8,0.6c1.2,0,2.3-0.5,3.2-1.6c1-1,1.8-2.3,2.5-3.7c0.7-1.5,1.3-3,1.7-4.5
		c0.4-1.6,0.7-2.8,0.8-3.9L261.2,119.5z M238.5,192.5c1.4,0,2.6-0.4,3.9-1.2c1.2-0.8,2.3-1.8,3.3-3.1c1-1.3,1.9-2.8,2.8-4.4
		c0.8-1.6,1.6-3.3,2.2-5.1c0.6-1.7,1.2-3.4,1.6-5.1c0.5-1.6,0.8-3.1,1.1-4.4c-1.3,0.8-2.5,1.8-3.9,3c-1.3,1.2-2.6,2.4-3.8,3.8
		c-1.2,1.3-2.4,2.7-3.5,4.1c-1.1,1.4-2.1,2.8-2.9,4.1c-0.8,1.3-1.5,2.5-2,3.7c-0.5,1.1-0.7,2.1-0.7,2.8
		C236.5,191.9,237.2,192.5,238.5,192.5z"/>
	<path class="st1" d="M304.5,92.3c-2.1,3.8-4,6.7-5.6,8.6c-1.6,1.9-3,2.9-4,2.9c-1.4,0-2.1-1.6-2.1-4.9c0-3.2,0.5-6,1.4-8.5
		c0.9-2.5,2.2-4.8,3.8-6.7c1.6-2,3.6-3.6,5.8-5c2.2-1.4,4.7-2.5,7.4-3.4s5.5-1.5,8.5-2c3-0.4,6-0.6,9.2-0.6c3.7,0,7.3,0.3,11,0.8
		s7.2,1.3,10.6,2.3c3.4,1,6.6,2.1,9.5,3.5c2.9,1.4,5.5,2.9,7.7,4.6c2.2,1.7,3.9,3.5,5.1,5.4s1.9,4,1.9,6.1c0,2.5-0.5,4.9-1.6,7.4
		c-1.1,2.4-2.8,4.6-5.1,6.6c-2.3,2-5.3,3.6-8.9,4.8c-3.6,1.3-7.9,1.9-13,2c3.2,0,6,0.5,8.4,1.5c2.4,1,4.4,2.4,6,4.1
		c1.6,1.7,2.8,3.7,3.6,6c0.8,2.3,1.2,4.6,1.2,7.1c0,2-0.3,4.1-0.8,6.2c-0.5,2.1-1.4,4.1-2.5,6.1c-1.1,1.9-2.5,3.8-4.1,5.5
		c-1.6,1.7-3.6,3.2-5.8,4.4c-2.2,1.3-4.7,2.3-7.5,3c-2.8,0.7-5.8,1.1-9.2,1.1c-2.1,0-4.3-0.1-6.6-0.4c-2.3-0.3-4.7-0.6-7.1-1.1
		c-2.4-0.5-4.7-1-7-1.7c-2.3-0.6-4.5-1.3-6.5-2.1c-0.9-0.2-1.7-0.6-2.4-1c-0.7-0.5-1-1.3-1-2.4c0-5.4,0.1-10.9,0.4-16.5
		c0.3-5.6,0.8-11.1,1.7-16.5c0.8-5.4,2.1-10.5,3.6-15.3c1.6-4.9,3.7-9.2,6.3-13.1c2.3-1.6,4.4-2.4,6.3-2.4c2.4,0,4.3,1.3,5.9,4
		c-1.5,2-2.8,4.2-3.8,6.7c-1.1,2.5-1.9,5-2.6,7.7c-0.7,2.7-1.3,5.5-1.7,8.3c-0.4,2.8-0.8,5.6-1,8.2c-0.2,1.5-0.3,3.1-0.4,4.8
		s-0.2,3.5-0.3,5.2c-0.1,1.8-0.2,3.5-0.2,5.3c0,1.8-0.1,3.5-0.1,5.1c0,0.3,0,0.6,0,1.1c0,0.5,0.1,0.9,0.1,1.4
		c0.1,0.5,0.2,0.9,0.3,1.3c0.1,0.4,0.3,0.7,0.6,0.9c2,0.6,4.1,1.2,6.4,1.6c2.3,0.5,4.5,0.7,6.8,0.7c2.7,0,5.4-0.3,8-1
		c2.6-0.7,4.9-1.7,6.9-3.2c2-1.4,3.6-3.3,4.8-5.5s1.8-5,1.8-8.2c0-1.9-0.4-3.4-1.1-4.7c-0.7-1.2-1.6-2.3-2.8-3.1
		c-1.1-0.8-2.5-1.5-3.9-2c-1.5-0.5-3-1-4.5-1.4c-1.5-0.4-3-0.8-4.5-1.2c-1.5-0.4-2.8-0.9-3.9-1.5c-1.1-0.6-2.1-1.3-2.8-2.2
		c-0.7-0.9-1.1-2-1.1-3.5c0-0.7,0-1.3,0.1-1.8c0.1-0.5,0.3-0.9,0.6-1.2c0.3-0.3,0.8-0.6,1.4-0.7c0.6-0.2,1.4-0.2,2.4-0.2
		c1.4,0,2.7,0.1,3.8,0.2c1.1,0.1,2.4,0.2,3.7,0.2c3.1,0,5.9-0.4,8.4-1.1c2.5-0.8,4.6-1.8,6.4-3.1c1.8-1.3,3.1-2.8,4.1-4.5
		c1-1.7,1.4-3.6,1.4-5.6c0-1.3-0.4-2.5-1.1-3.6s-1.8-2.1-3.1-2.9c-1.3-0.9-2.9-1.6-4.7-2.3c-1.8-0.6-3.8-1.2-5.9-1.6
		c-2.1-0.4-4.4-0.8-6.7-1c-2.4-0.2-4.8-0.3-7.2-0.3c-3.1,0-6.1,0.2-9.1,0.5c-3,0.3-5.8,0.9-8.3,1.6s-4.8,1.6-6.8,2.6
		C307,89.7,305.5,90.9,304.5,92.3z"/>
	<path class="st1" d="M399.9,146.4c-1.2,1.1-2.6,2.2-4.3,3.4c-1.7,1.2-3.6,2.3-5.6,3.3c-2,1-4,1.9-6.1,2.5c-2.1,0.7-4.1,1-5.9,1
		c-1.7,0-3.1-0.2-4.2-0.7c-1.1-0.5-2.1-1.1-2.8-2s-1.2-1.9-1.5-3.1c-0.3-1.2-0.5-2.5-0.5-4c0-2,0.2-4.4,0.7-7.1
		c0.5-2.7,1-5.5,1.7-8.4s1.4-5.8,2.2-8.7c0.8-2.9,1.4-5.5,2-8c0.2-0.8,0.7-1.6,1.4-2.2c0.7-0.6,1.4-1.1,2.3-1.5
		c0.9-0.4,1.7-0.6,2.7-0.8c0.9-0.2,1.8-0.3,2.5-0.3c1.4,0,2.3,0.2,2.8,0.8c0.5,0.5,0.7,1.2,0.7,2c0,0.7-0.2,1.7-0.5,3.1
		c-0.3,1.3-0.7,2.9-1.2,4.6c-0.5,1.7-1,3.5-1.6,5.5c-0.5,2-1.1,3.9-1.6,5.9c-0.5,2-0.9,3.9-1.2,5.7c-0.3,1.9-0.5,3.5-0.5,5
		c0,1.5,0.2,2.6,0.5,3.5c0.3,0.9,1,1.3,2,1.3c1.2,0,2.5-0.4,3.9-1.2c1.4-0.8,2.9-1.8,4.3-2.9c1.5-1.1,2.9-2.3,4.3-3.6
		c1.4-1.2,2.6-2.3,3.7-3.2V146.4z M378.2,96.6c0-0.7,0.2-1.6,0.5-2.5c0.3-0.9,0.8-1.8,1.6-2.6c0.7-0.8,1.7-1.5,2.9-2.1
		c1.2-0.6,2.7-0.8,4.5-0.8c1.1,0,2.2,0.1,3.2,0.4c1,0.3,1.9,0.7,2.6,1.2s1.3,1.2,1.8,2.1c0.4,0.9,0.7,1.9,0.7,3.1
		c0,1.1-0.2,2.2-0.5,3.2c-0.4,1-0.9,2-1.7,2.8c-0.8,0.8-1.8,1.5-2.9,2s-2.6,0.8-4.2,0.8c-2.8,0-4.9-0.7-6.3-2
		C378.9,100.6,378.2,98.8,378.2,96.6z"/>
	<path class="st1" d="M396.4,146.6c0-1.4,0.1-3.1,0.2-5c0.2-1.9,0.4-3.9,0.7-6c0.3-2.1,0.6-4.2,1-6.4c0.4-2.2,0.8-4.3,1.2-6.2
		s0.8-3.8,1.3-5.4s0.8-3,1.3-4.1c0.3-0.7,0.5-1.3,0.8-1.7s0.6-0.8,0.9-1c0.3-0.2,0.8-0.4,1.3-0.5s1.1-0.1,1.9-0.1c0.8,0,1.5,0,2,0.1
		s0.8,0.3,1,0.6c0.2,0.3,0.4,0.8,0.4,1.3c0,0.6,0.1,1.4,0.1,2.4c0,1.2,0,2.6,0,4.3c0,1.7,0,3.4,0.1,5h0.5c0.6-1.3,1.4-2.7,2.2-4.3
		c0.8-1.6,1.7-3.1,2.8-4.5c1.1-1.4,2.3-2.6,3.6-3.5c1.4-1,2.9-1.4,4.7-1.4c0.6,0,1.2,0.1,1.8,0.3c0.6,0.2,1.1,0.5,1.5,0.9
		c0.4,0.4,0.8,0.9,1,1.4c0.3,0.6,0.4,1.2,0.4,1.9c0,0.5-0.1,1.3-0.2,2.3c-0.2,1-0.3,2-0.5,3.1c-0.2,1.1-0.4,2.1-0.5,3.2
		c-0.2,1-0.2,1.9-0.2,2.5c0,1.2,0.1,2.1,0.3,2.9c0.2,0.8,0.5,1.4,0.9,1.9c0.4,0.5,0.8,0.8,1.3,1c0.5,0.2,1,0.3,1.5,0.3
		c1.5,0,3-0.3,4.5-1c1.6-0.6,3-1.4,4.3-2.2c1.5-0.9,3-2,4.5-3.2l-0.7,11.3c-0.8,0.5-1.8,1.2-2.9,1.8s-2.2,1.3-3.4,1.9
		s-2.5,1.1-3.8,1.5c-1.3,0.4-2.6,0.6-4,0.6c-2.4,0-4.4-0.5-5.9-1.5c-1.5-1-2.7-2.3-3.5-3.9c-0.9-1.6-1.5-3.4-1.9-5.4
		c-0.4-2-0.8-4-1-6h-0.8l-8.7,24.2c-0.5,1.3-0.9,2.3-1.3,3.1c-0.4,0.8-0.8,1.5-1.2,2c-0.4,0.5-0.9,0.9-1.4,1.1
		c-0.5,0.2-1,0.3-1.6,0.3c-1.3,0-2.4-0.3-3.2-0.8c-0.8-0.6-1.4-1.3-1.9-2.3c-0.4-1-0.7-2-0.9-3.2S396.4,147.9,396.4,146.6z"/>
	<path class="st1" d="M478.7,145.9c-3.1,1.8-5.9,3.4-8.3,4.8s-4.6,2.5-6.5,3.4c-1.9,0.9-3.6,1.6-5,2c-1.5,0.5-2.8,0.7-4,0.7
		c-2.5,0-4.6-0.7-6.5-2.2c-1.9-1.5-3.4-3.6-4.7-6.4c-1.3-2.8-2.2-6.2-2.8-10.2c-0.6-4-0.9-8.5-0.9-13.4c0-1.9,0.1-4,0.2-6.2
		c0.2-2.2,0.4-4.4,0.7-6.5c-1-0.1-1.7-0.2-2.3-0.4s-1.1-0.2-1.7-0.3c-0.6-0.1-1.4-0.2-2.3-0.4c-0.9-0.1-2.3-0.3-4-0.5
		c-0.8-0.1-1.4-0.3-1.8-0.6c-0.4-0.3-0.7-0.6-0.9-1c-0.2-0.4-0.3-0.8-0.3-1.2c0-0.4,0-0.8,0-1c0-0.6,0.3-1.1,0.9-1.5
		c0.6-0.3,1.4-0.6,2.4-0.8c1-0.2,2.1-0.2,3.2-0.3c1.2,0,2.3,0,3.4,0c1.1,0,2.1,0.1,2.9,0.1c0.9,0,1.4,0,1.8-0.1
		c0.9-4.4,2-8.6,3.3-12.7s2.8-7.7,4.5-10.9c1.7-3.2,3.5-5.7,5.5-7.7s4-2.9,6.2-2.9c1.4,0,2.7,0.4,3.8,1.2s2.1,1.8,2.9,3.1
		c0.8,1.3,1.4,2.8,1.9,4.5c0.4,1.7,0.7,3.5,0.7,5.4c0,1.6-0.2,3.3-0.7,5c-0.5,1.8-1.1,3.6-1.8,5.4c-0.8,1.8-1.7,3.7-2.7,5.6
		c-1.1,1.9-2.2,3.7-3.3,5.6c0.3,0,0.8,0.1,1.5,0.1s1.5,0,2.4,0.1c0.9,0,1.8,0.1,2.9,0.1c1,0,2,0.1,3,0.1c1,0,1.9,0.1,2.7,0.1
		c0.8,0,1.5,0.1,2.1,0.1c0.6,0,1.1,0.4,1.4,1c0.3,0.6,0.4,1.4,0.4,2.3c0,1.1-0.3,2.1-1,2.8c-0.6,0.7-1.4,1.1-2.1,1.1h-18.6
		c-0.9,1.3-1.9,2.6-2.8,3.8s-1.8,2.4-2.6,3.4c-0.1,2-0.2,4-0.3,5.9c0,0.8-0.1,1.7-0.1,2.6c0,0.9-0.1,1.8-0.1,2.6
		c0,0.9-0.1,1.7-0.1,2.5c0,0.8,0,1.6,0,2.2c0,1.7,0.2,3.2,0.5,4.4c0.3,1.2,0.8,2.2,1.4,2.9c0.6,0.8,1.4,1.3,2.3,1.6
		c0.9,0.3,1.9,0.5,3,0.5c0.7,0,1.5-0.2,2.5-0.5c1-0.3,2.1-0.8,3.3-1.3s2.5-1.2,3.8-2c1.3-0.8,2.7-1.6,4-2.5c1.3-0.9,2.6-1.9,3.8-2.9
		c1.2-1,2.3-2.1,3.2-3.1V145.9z M463.1,84.5c0-0.4,0-0.8-0.1-1.2c0-0.4-0.2-0.8-0.3-1.2c-0.2-0.4-0.4-0.7-0.8-1
		c-0.3-0.3-0.8-0.4-1.4-0.4c-0.8,0-1.7,0.7-2.5,2.2c-0.9,1.5-1.7,3.4-2.5,5.7c-0.8,2.3-1.5,4.9-2.2,7.6c-0.7,2.8-1.3,5.5-1.9,8.1
		c0.5,0.1,1,0.1,1.5,0.2c0.5,0,1,0.1,1.5,0.2c1-1.6,2-3.4,3-5.4c1-1.9,2-3.8,2.8-5.7c0.8-1.9,1.5-3.6,2.1-5.2
		C462.9,86.9,463.1,85.6,463.1,84.5z"/>
	<path class="st1" d="M493.9,126.6c1.3-1.7,2.8-3.6,4.5-5.6s3.4-3.9,5.1-5.6c1.8-1.7,3.5-3.2,5.3-4.3c1.8-1.1,3.4-1.7,5-1.7
		c0.4,0,0.8,0.1,1.3,0.2c0.5,0.1,0.9,0.4,1.4,0.8c0.4,0.4,0.8,0.9,1.1,1.6s0.4,1.6,0.4,2.7c0,2.2-0.3,4.3-0.9,6.4
		c-0.6,2.1-1.3,4.2-2,6.3c-0.7,2.1-1.4,4.2-2,6.4c-0.6,2.2-0.9,4.4-0.9,6.8c0,1.3,0.2,2.3,0.6,3.1s0.9,1.2,1.5,1.2
		c0.8,0,1.6-0.2,2.5-0.5c0.9-0.3,1.7-0.7,2.6-1.3c0.9-0.5,1.7-1.1,2.6-1.8c0.8-0.7,1.6-1.3,2.4-2.1c1.8-1.6,3.5-3.5,5.2-5.6
		l0.8,12.9c-0.6,0.5-1.3,1-2.2,1.7c-0.9,0.7-1.9,1.4-3,2.2c-1.1,0.8-2.3,1.5-3.5,2.3s-2.5,1.5-3.8,2.1c-1.3,0.6-2.6,1.1-3.8,1.5
		c-1.3,0.4-2.5,0.6-3.7,0.6c-1.8,0-3.3-0.5-4.6-1.4c-1.3-1-2.4-2.2-3.2-3.6c-0.8-1.5-1.5-3.1-1.9-4.8c-0.4-1.7-0.6-3.4-0.6-4.9
		c0-1,0.1-2.2,0.4-3.5c0.3-1.3,0.6-2.6,1-3.9c0.4-1.3,0.9-2.6,1.4-3.8s1-2.3,1.4-3.3s0.8-1.8,1.1-2.4c0.3-0.6,0.5-1,0.6-1.1l-1-0.1
		c-0.5,0.4-1.5,1.3-2.8,2.7c-1.3,1.5-2.8,3.3-4.4,5.5s-3.4,4.7-5.1,7.5c-1.8,2.8-3.4,5.6-4.8,8.6c-0.7,1.5-1.3,2.7-1.7,3.8
		c-0.5,1.1-0.9,2-1.3,2.7c-0.4,0.7-0.9,1.2-1.4,1.6c-0.5,0.4-1.2,0.5-2,0.5c-1.1,0-1.9-0.3-2.5-0.9c-0.6-0.6-1.1-1.4-1.4-2.4
		c-0.3-1-0.5-2.2-0.6-3.5c-0.1-1.3-0.1-2.6-0.1-4c0-2.2,0-5,0.1-8.5c0-3.5,0.2-7.4,0.5-11.7c0.3-4.3,0.6-8.8,1.1-13.5
		c0.5-4.7,1.2-9.4,2.1-14c0.9-4.6,2-9,3.3-13.2c1.3-4.2,3-7.9,4.9-11.1s4.2-5.7,6.8-7.6c2.6-1.9,5.6-2.8,8.9-2.8
		c1.7,0,3.2,0.3,4.3,0.8c1.1,0.5,2,1.2,2.7,2.2c0.7,0.9,1.1,2.1,1.4,3.4c0.3,1.3,0.4,2.8,0.4,4.4c0,2.4-0.3,5-1,8
		c-0.7,2.9-1.6,5.9-2.7,9.1c-1.1,3.1-2.4,6.3-3.8,9.5c-1.4,3.2-2.9,6.3-4.4,9.4c-1.5,3-2.9,5.9-4.4,8.6c-1.4,2.7-2.7,5-3.8,7.1
		L493.9,126.6z M498.2,96.7c1.9-4.9,3.3-9.1,4.1-12.5c0.9-3.4,1.3-5.9,1.3-7.5c0-2.5-0.3-3.7-1-3.7c-0.8,0-2.1,1.4-3.7,4.1
		c-1.6,2.7-3.6,6.7-5.8,12c-0.5,1.8-1.1,3.6-1.5,5.5c-0.5,1.9-0.9,3.8-1.3,5.7c-0.4,1.9-0.7,3.8-1,5.6c-0.3,1.8-0.6,3.6-0.8,5.2
		c-0.6,3.8-1,7.6-1.3,11.3c0.9-2,1.8-4.2,2.9-6.6c1-2.4,2.1-4.8,3.1-7.1c1-2.3,1.9-4.6,2.8-6.6C496.9,99.9,497.6,98.1,498.2,96.7z"
		/>
	<path class="st1" d="M581.5,147.3c-2.3,1.8-4.6,3.4-6.8,4.8c-0.9,0.6-1.9,1.2-3,1.7c-1,0.6-2.1,1.1-3.1,1.5s-2,0.8-2.9,1.1
		c-1,0.3-1.8,0.4-2.6,0.4c-0.5,0-1.1-0.1-2-0.3c-0.9-0.2-1.9-0.6-2.9-1.2c-1.1-0.6-2.1-1.5-3.2-2.6c-1.1-1.1-2-2.6-2.7-4.5
		c-1.2,1.2-2.5,2.3-3.8,3.3c-1.3,1.1-2.7,2-4.2,2.7c-1.4,0.8-2.9,1.4-4.4,1.9c-1.5,0.5-2.9,0.7-4.4,0.7c-2.1,0-3.9-0.5-5.5-1.4
		c-1.5-0.9-2.8-2.1-3.8-3.6c-1-1.5-1.8-3.2-2.3-5.1s-0.8-3.9-0.8-5.9c0-2.1,0.3-4.2,0.8-6.3c0.5-2.1,1.3-4.2,2.3-6.2
		s2.3-3.9,3.7-5.6c1.5-1.8,3.1-3.3,4.9-4.7c1.8-1.4,3.8-2.5,6-3.4c2.2-0.9,4.5-1.5,6.9-1.7c0.1-4.1,0.5-8.2,1.1-12.3
		c0.6-4,1.5-7.9,2.6-11.5c1.1-3.7,2.3-7,3.8-10.1c1.4-3.1,3-5.8,4.7-8c1.7-2.3,3.5-4,5.5-5.3c1.9-1.3,3.9-1.9,6-1.9
		c1.5,0,2.8,0.4,3.9,1.2c1.1,0.8,1.9,1.8,2.6,3.2c0.7,1.3,1.1,2.8,1.4,4.6c0.3,1.7,0.4,3.5,0.4,5.4c0,1.1,0,2.3-0.1,3.5
		c-0.4,4.6-1.2,8.9-2.3,12.9c-1.1,4.1-2.5,8-4,11.9c-1.5,3.8-3.2,7.7-4.9,11.4c-1.8,3.8-3.5,7.7-5.2,11.8c-0.2,0.5-0.3,1-0.5,1.6
		c-0.2,0.6-0.3,1.3-0.5,2.1s-0.3,1.5-0.4,2.3c-0.1,0.8-0.1,1.6-0.1,2.3c0,0.9,0.1,1.8,0.2,2.7c0.1,0.8,0.3,1.6,0.6,2.3
		s0.6,1.2,1,1.6s1,0.6,1.6,0.6c0.6,0,1.3-0.1,2-0.4c0.7-0.2,1.5-0.6,2.3-1s1.6-0.9,2.4-1.4c0.8-0.5,1.6-1.1,2.4-1.6
		c1.8-1.3,3.6-2.8,5.6-4.4L581.5,147.3z M548.2,120.1c-2.1,1-4,2.4-5.7,4.1c-1.7,1.7-3.1,3.5-4.2,5.5c-1.1,2-2,4-2.5,6
		c-0.6,2-0.9,3.8-0.9,5.4c0,0.6,0.1,1.3,0.2,1.9c0.1,0.6,0.4,1.2,0.8,1.7s0.9,0.9,1.6,1.3c0.7,0.3,1.6,0.5,2.8,0.5
		c0.6,0,1.2-0.1,1.7-0.4s1.1-0.7,1.6-1.1c0.5-0.5,1-1,1.5-1.6c0.5-0.6,0.9-1.2,1.3-1.9c0.9-1.5,1.7-3.2,2.5-5
		c-0.1-0.5-0.2-1.2-0.2-2.2c-0.1-1-0.1-2.1-0.1-3.3c0-1.2-0.1-2.5-0.1-3.8c0-1.3-0.1-2.5-0.1-3.5s0-1.9-0.1-2.6
		C548.2,120.4,548.2,120.1,548.2,120.1z M571,85c0.2-2.3,0.3-4.1,0.3-5.4c0-1.7-0.2-3-0.5-3.6c-0.3-0.7-0.8-1-1.3-1
		c-1,0-2,0.7-2.8,2c-0.8,1.3-1.6,3-2.2,5c-0.6,2-1.2,4.3-1.7,6.7c-0.5,2.5-0.9,4.8-1.2,7.1c-0.3,2.3-0.6,4.4-0.8,6.2
		c-0.2,1.8-0.3,3.2-0.4,3.9c-0.1,1.6-0.2,3.1-0.3,4.6c-0.1,1.5-0.1,2.8-0.2,4s0,2.3,0,3.2c0,0.9,0,1.6,0,2.1v0.5
		c1.8-4.2,3.5-8.4,5.1-12.6c0.6-1.8,1.3-3.6,2-5.6c0.7-2,1.3-3.9,1.8-5.9c0.5-2,1-3.9,1.4-5.8C570.5,88.5,570.8,86.7,571,85z"/>
	<path class="st1" d="M629.5,144.9c-0.7,1-1.7,2.2-3,3.6c-1.2,1.4-2.6,2.7-4.2,4s-3.2,2.3-5,3.2c-1.8,0.9-3.6,1.3-5.3,1.3
		c-2.1,0-3.9-0.7-5.3-2.1c-1.4-1.4-2.7-3.4-3.7-6c-0.8,0.9-1.7,1.8-2.9,2.8c-1.1,0.9-2.4,1.8-3.7,2.5c-1.3,0.8-2.7,1.4-4.2,1.9
		c-1.5,0.5-2.9,0.7-4.4,0.7c-1.6,0-3.1-0.3-4.5-0.9c-1.5-0.6-2.8-1.5-3.9-2.7c-1.1-1.2-2-2.6-2.7-4.3c-0.7-1.7-1-3.6-1-5.7
		c0-2.4,0.3-4.9,1-7.5c0.7-2.6,1.6-5,2.8-7.5c1.2-2.4,2.6-4.7,4.2-6.9s3.4-4.1,5.4-5.7c1.9-1.6,4-2.9,6.1-3.9c2.1-1,4.3-1.4,6.6-1.4
		c0.7,0,1.3,0.1,1.7,0.4c0.4,0.3,0.8,0.6,1,1c0.3,0.4,0.5,0.7,0.8,1.1c0.3,0.4,0.6,0.6,1,0.8s0.8,0.3,1.2,0.3c0.4,0,0.8,0.1,1.2,0.1
		c0.4,0,0.7,0,1.1,0c0.4,0,0.7,0,1.1,0c0.5,0,0.9,0,1.4,0.1s0.8,0.3,1.1,0.6c0.3,0.3,0.6,0.8,0.8,1.4c0.2,0.6,0.3,1.4,0.3,2.4
		c0,1.6-0.2,3.3-0.5,5.2c-0.3,1.9-0.7,3.8-1.1,5.8c-0.4,2-0.7,4-1.1,6c-0.3,2-0.5,3.9-0.5,5.6c0,1.5,0.1,2.7,0.4,3.6
		s0.9,1.3,1.8,1.3c0.7,0,1.4-0.2,2.1-0.5c0.7-0.3,1.5-0.8,2.3-1.3c0.8-0.5,1.5-1.2,2.3-1.9c0.8-0.7,1.5-1.4,2.2-2.2
		c1.6-1.7,3.2-3.7,4.8-5.9L629.5,144.9z M588.1,141.1c0,0.8,0.1,1.6,0.2,2.4s0.3,1.4,0.6,2c0.3,0.6,0.7,1.1,1.2,1.5
		c0.5,0.4,1.1,0.6,1.8,0.6c1.2,0,2.3-0.5,3.2-1.6c1-1,1.8-2.3,2.5-3.7c0.7-1.5,1.3-3,1.7-4.5c0.4-1.6,0.7-2.8,0.8-3.9l3-14.3
		c-1.3,0-2.6,0.3-3.9,1c-1.3,0.7-2.4,1.6-3.6,2.7c-1.1,1.1-2.1,2.4-3.1,3.9s-1.7,3-2.4,4.6c-0.7,1.6-1.2,3.2-1.6,4.8
		C588.3,138.1,588.1,139.6,588.1,141.1z"/>
	<path class="st1" d="M648.6,119.5c0.3-1.1,0.7-2.1,1.4-2.9c0.7-0.9,1.4-1.6,2.3-2.2c0.9-0.6,1.8-1,2.7-1.3c0.9-0.3,1.8-0.4,2.7-0.4
		c1,0,1.8,0.2,2.5,0.7c0.7,0.4,1,1.1,1,2.1c0,0.3,0,0.6-0.1,1c-0.2,0.8-0.4,2-0.7,3.4c-0.3,1.5-0.6,3.1-0.9,4.9
		c-0.3,1.8-0.7,3.8-1,5.8c-0.4,2.1-0.7,4.1-1,6.1c-0.8,4.8-1.6,9.9-2.5,15.4c1-0.5,2-1.2,3.2-2c1.1-0.8,2.4-1.9,3.8-3.2
		c1.4-1.4,2.9-3.1,4.7-5.1c1.7-2.1,3.6-4.6,5.8-7.7l2.3,10.8c-0.6,1-1.3,2-2.3,3.1c-0.9,1.1-1.9,2.1-3.1,3.2
		c-1.1,1.1-2.3,2.1-3.5,3.1c-1.2,1-2.4,1.9-3.6,2.8c-2.7,2.1-5.7,4.1-8.9,6c-0.6,3.5-1.3,6.8-2.2,10.1c-0.8,3.3-1.8,6.4-3,9.2
		c-1.1,2.9-2.5,5.5-3.9,7.9c-1.5,2.4-3.1,4.4-5,6.2c-1.9,1.7-3.9,3-6.2,4c-2.3,1-4.8,1.4-7.6,1.4c-1.1,0-2.3-0.1-3.6-0.3
		c-1.3-0.2-2.5-0.7-3.5-1.4c-1.1-0.7-2-1.6-2.7-2.9c-0.7-1.3-1.1-2.9-1.1-5c0-1.5,0.4-3.1,1.1-4.9s1.8-3.7,3.1-5.8
		c1.3-2,2.8-4.1,4.6-6.3c1.8-2.2,3.7-4.4,5.8-6.5s4.3-4.3,6.5-6.4c2.3-2.1,4.6-4.1,6.9-6l1.3-4.5c-1.7,1.6-3.6,2.8-5.5,3.8
		s-3.7,1.4-5.5,1.4c-1.6,0-3.1-0.3-4.5-0.9c-1.5-0.6-2.8-1.5-3.9-2.7c-1.1-1.2-2-2.6-2.7-4.3c-0.7-1.7-1-3.6-1-5.7
		c0-2.8,0.1-5.4,0.4-7.8c0.3-2.4,0.7-4.6,1.2-6.7c0.5-2.1,1.2-4.2,1.9-6.2c0.8-2,1.7-4,2.7-6c0.7-1.5,1.8-2.6,3.2-3.3
		c1.4-0.8,2.7-1.1,4.1-1.1c1.1,0,2.1,0.3,2.9,0.8s1.2,1.4,1.2,2.6c0,0.4,0,0.7-0.1,1.2s-0.2,0.9-0.4,1.4c-0.6,1.5-1.2,3.2-1.7,5.3
		c-0.6,2-1.1,4.1-1.5,6.2c-0.4,2.1-0.8,4.2-1,6.2c-0.3,2-0.4,3.8-0.4,5.4c0,0.8,0.1,1.6,0.2,2.4s0.3,1.4,0.6,2
		c0.3,0.6,0.7,1.1,1.2,1.5c0.5,0.4,1.1,0.6,1.8,0.6c1.2,0,2.3-0.5,3.2-1.6c1-1,1.8-2.3,2.5-3.7c0.7-1.5,1.3-3,1.7-4.5
		c0.4-1.6,0.7-2.8,0.8-3.9L648.6,119.5z M625.9,192.5c1.4,0,2.6-0.4,3.9-1.2c1.2-0.8,2.3-1.8,3.3-3.1c1-1.3,1.9-2.8,2.8-4.4
		c0.8-1.6,1.6-3.3,2.2-5.1c0.6-1.7,1.2-3.4,1.6-5.1c0.5-1.6,0.8-3.1,1.1-4.4c-1.3,0.8-2.5,1.8-3.9,3c-1.3,1.2-2.6,2.4-3.8,3.8
		c-1.2,1.3-2.4,2.7-3.5,4.1s-2.1,2.8-2.9,4.1c-0.8,1.3-1.5,2.5-2,3.7c-0.5,1.1-0.7,2.1-0.7,2.8C624,191.9,624.7,192.5,625.9,192.5z"
		/>
	<path class="st1" d="M691.2,147.8c-0.1,0.1-0.1,0.4-0.2,0.9c0,0.5-0.2,1.1-0.3,1.7s-0.4,1.4-0.8,2.1c-0.3,0.7-0.8,1.4-1.4,2.1
		c-0.6,0.6-1.4,1.2-2.4,1.6s-2.2,0.6-3.6,0.6c-1.2,0-2.3-0.2-3.2-0.5s-1.8-0.8-2.5-1.4c-0.7-0.6-1.2-1.5-1.6-2.5
		c-0.4-1-0.6-2.2-0.6-3.6c0-1.2,0.2-2.3,0.5-3.4c0.3-1.1,0.9-2.1,1.6-3c0.7-0.9,1.6-1.6,2.8-2.1c1.1-0.5,2.5-0.8,4-0.8
		c2.5,0,4.5,0.7,5.8,2s2,3.3,2,5.8C691.3,147.6,691.2,147.7,691.2,147.8z M682.8,131.9c0.3-3.3,0.8-6.8,1.5-10.3
		c0.6-3.5,1.4-7.1,2.2-10.6s1.7-7,2.7-10.5c1-3.5,1.9-6.8,2.8-9.9c0.9-3.2,1.8-6.1,2.7-8.9c0.9-2.8,1.6-5.3,2.3-7.5
		c0.4-1.6,1-2.8,1.8-3.8c0.8-1,1.7-1.7,2.6-2.2s2-0.9,3.1-1.1c1.1-0.2,2.1-0.3,3.1-0.3c0.5,0,1,0.1,1.5,0.2c0.5,0.1,0.8,0.4,1.2,0.7
		c0.3,0.3,0.6,0.8,0.8,1.4c0.2,0.6,0.3,1.4,0.3,2.3c0,0.6,0,1.3-0.1,2.1c-0.1,0.8-0.2,1.6-0.4,2.6c-0.8,3.8-1.9,7.6-3.2,11.4
		s-2.8,7.9-4.7,12.2c-1.8,4.4-3.9,9.2-6.2,14.4c-2.3,5.2-4.9,11.2-7.7,17.9c-0.1,0.4-0.2,0.7-0.5,1c-0.3,0.3-0.6,0.6-1,0.8
		s-0.8,0.4-1.3,0.5c-0.5,0.1-0.9,0.2-1.3,0.2c-0.6,0-1.1-0.1-1.6-0.4c-0.4-0.3-0.7-0.7-0.7-1.3C682.7,132.5,682.7,132.3,682.8,131.9
		z"/>
</g>
</svg>
